<svg xmlns="http://www.w3.org/2000/svg" width="499.314" height="70" viewBox="0 0 499.314 70">
  <defs>
    <style>
      .cls-1 {
        fill: #97b0e3;
        fill-rule: evenodd;
      }
    </style>
  </defs>
  <path id="Roadmap" class="cls-1" d="M776.088,4466.84a18.381,18.381,0,0,0-6.669-7.27,17.068,17.068,0,0,0-4.036-1.78,34.82,34.82,0,0,0-4.673-1.06,39.549,39.549,0,0,0-4.8-.47q-2.379-.09-4.418-0.09-7.987,0-15.93.51t-15.93.94q-0.51,13.755-.765,27.53-0.086,7.725-.595,15.5t-1.1,15.59c1.585,0.17,3.157.29,4.715,0.34s3.157,0.09,4.8.09q4.844,0,9.686-.26l-0.425-19.28c1.812-.12,3.639-0.26,5.48-0.43s3.7-.31,5.565-0.42a91.972,91.972,0,0,1,3.823,12.15,97.159,97.159,0,0,1,2.039,12.66l24.809-.6a237.156,237.156,0,0,0-14.7-28.72,16.962,16.962,0,0,0,11.215-4.33q4.247-3.99,4.248-10.96A20.794,20.794,0,0,0,776.088,4466.84Zm-17.417,9.73c-0.029.68-.057,1.37-0.085,2.08a15.634,15.634,0,0,1-.212,2.04,3.283,3.283,0,0,1-.425,1.31,4.136,4.136,0,0,1-2.081,1.23,19.941,19.941,0,0,1-3.229.73c-1.162.17-2.294,0.28-3.4,0.34s-1.941.08-2.507,0.08c-1.3,0-2.634-.05-3.993-0.17a28.155,28.155,0,0,1-3.908-.59l-2.294-16.49q3.228-.51,6.5-0.84a63.557,63.557,0,0,1,6.67-.34c0.283,0,.778.01,1.487,0.04s1.444,0.08,2.209.17,1.486,0.18,2.166.29a2.467,2.467,0,0,1,2.379,2.09,13.786,13.786,0,0,1,.51,2.29,24.279,24.279,0,0,1,.212,2.42c0.028,0.8.043,1.42,0.043,1.87C758.714,4475.41,758.7,4475.89,758.671,4476.57Zm99.617,3.39c-0.057-1.24-.128-2.62-0.213-4.12s-0.2-3.07-.339-4.71-0.3-3.2-.468-4.68-0.382-2.78-.637-3.95a13.939,13.939,0,0,0-.807-2.67,4.871,4.871,0,0,0-2.549-2.04,31.672,31.672,0,0,0-4.885-1.7q-2.847-.765-6.16-1.32c-2.209-.36-4.39-0.68-6.542-0.93s-4.15-.44-5.99-0.55-3.3-.17-4.375-0.17c-0.794,0-2.039.03-3.738,0.08s-3.6.16-5.693,0.3-4.305.31-6.627,0.51-4.5.42-6.542,0.68-3.823.55-5.352,0.89a9.791,9.791,0,0,0-3.144,1.1,6.01,6.01,0,0,0-1.869,2.68,34.787,34.787,0,0,0-1.572,4.72q-0.723,2.715-1.316,5.86c-0.4,2.09-.737,4.15-1.02,6.16s-0.51,3.88-.68,5.61-0.255,3.13-.255,4.2a55.026,55.026,0,0,0,.383,6.29q0.383,3.315,1.019,6.67t1.572,6.54q0.934,3.18,2.039,5.99c0.283,0.68.6,1.39,0.935,2.12a11.659,11.659,0,0,0,1.189,2.04,4.988,4.988,0,0,0,2.931,1.4,51.163,51.163,0,0,0,5.523.94q3.186,0.375,6.839.59t7.009,0.3q3.356,0.09,5.99.13c1.755,0.03,3,.04,3.738.04q3.313,0,7.137.09a59.3,59.3,0,0,0,7.647-.34,33.868,33.868,0,0,0,7.349-1.66,15.847,15.847,0,0,0,6.074-3.78,5.587,5.587,0,0,0,.85-2.3c0.283-1.24.552-2.73,0.807-4.46s0.481-3.61.68-5.65,0.368-3.97.51-5.82,0.255-3.46.339-4.88,0.156-2.41.213-2.97c0.056-.68.085-1.38,0.085-2.09v-2.16C858.373,4482.2,858.344,4481.21,858.288,4479.96Zm-15.166,8.8c-0.029,1.39-.1,2.83-0.212,4.33s-0.284,2.89-.51,4.16a5.8,5.8,0,0,1-.849,2.51,6.151,6.151,0,0,1-3.017,1.32q-2.337.555-5.1,0.93c-1.841.26-3.6,0.44-5.268,0.55s-2.846.17-3.526,0.17c-0.4,0-1.091-.01-2.081-0.04s-2.124-.08-3.4-0.17-2.591-.18-3.95-0.3-2.649-.26-3.866-0.46-2.252-.41-3.1-0.64a2.619,2.619,0,0,1-1.529-.77,4.541,4.541,0,0,1-.638-1.86c-0.142-.85-0.269-1.76-0.382-2.72s-0.184-1.9-.212-2.81-0.043-1.58-.043-2.04c0-.51.028-1.34,0.085-2.5s0.155-2.38.3-3.66,0.31-2.46.509-3.56a5.047,5.047,0,0,1,.807-2.26,4.764,4.764,0,0,1,2.719-1.31c1.472-.37,3.072-0.68,4.8-0.94s3.37-.44,4.928-0.55,2.647-.17,3.271-0.17c0.793,0,2.152.02,4.078,0.04s3.922,0.13,5.99.3a39.77,39.77,0,0,1,5.692.85c1.728,0.4,2.817.93,3.271,1.61a7.328,7.328,0,0,1,1.105,3.36c0.113,1.27.17,2.48,0.17,3.61C843.165,4486.36,843.15,4487.37,843.122,4488.76Zm79.184,16.52q-1.233-6.795-2.251-13.76-1.446-8.835-2.762-17.63t-2.676-17.63q-7.563-.255-15.123-0.26a111.071,111.071,0,0,0-12.277.68q-6.075.69-12.192,1.7-1.191,14.37-2.464,28.64t-2.463,28.71h13.083l2.634-11.3,20.9-.76q1.274,4.335,2.633,8.62t2.719,8.63l12.914-1.96Q923.536,4512.075,922.306,4505.28Zm-34.877-12.74a8.486,8.486,0,0,0,.3-1.28c0.141-.73.325-1.61,0.552-2.63s0.467-2.09.722-3.23,0.51-2.19.765-3.18,0.467-1.83.637-2.51a2.425,2.425,0,0,1,.425-1.11,2.077,2.077,0,0,1,.977-0.42,9.122,9.122,0,0,1,1.529-.21c0.538-.03,1.048-0.05,1.53-0.05h2.081a11.347,11.347,0,0,1,1.4.09c0.481,0.06.935,0.11,1.359,0.17a3.28,3.28,0,0,1,.807.17,4.632,4.632,0,0,1,1.063,2.25c0.367,1.28.692,2.69,0.976,4.25s0.538,3.03.765,4.42,0.368,2.33.425,2.84Zm107.094-7.56c-0.029-1.65-.072-3.34-0.128-5.1s-0.142-3.41-.255-4.97a16.949,16.949,0,0,0-.509-3.44,19.409,19.409,0,0,0-2.209-4.85,13.824,13.824,0,0,0-3.484-3.9,14.335,14.335,0,0,0-4.97-1.7q-3.441-.69-7.349-1.15t-7.519-.72c-2.408-.17-4.235-0.31-5.48-0.43q-7.223-.51-14.274-0.8t-14.188-.56q0.679,15.645,1.954,30.93,1.275,15.3,2.719,30.84c0.51-.05,1.542-0.24,3.1-0.55s3.454-.68,5.692-1.11,4.729-.9,7.477-1.44,5.522-1.08,8.326-1.61,5.55-1.09,8.241-1.66,5.126-1.11,7.307-1.62,4.006-.94,5.48-1.31a11.937,11.937,0,0,0,2.719-.89,16.756,16.756,0,0,0,2.718-1.92,11,11,0,0,0,1.869-2.12,11.688,11.688,0,0,0,1.275-2.55,27.287,27.287,0,0,0,.935-3.27,22.076,22.076,0,0,0,.594-5.18v-5.19C994.565,4487.86,994.551,4486.62,994.523,4484.98Zm-21.325,7.35a4.4,4.4,0,0,1-1.147,2.16,9.281,9.281,0,0,1-3.909,2.34,41.577,41.577,0,0,1-5.862,1.61q-3.144.645-6.16,1.02c-2.011.26-3.555,0.41-4.63,0.47q-0.426-6.63-.977-13.04t-1.232-13.04h3.483c0.453,0,1.473.01,3.059,0.04s3.284,0.08,5.1.17,3.483,0.23,5.012.42a6.432,6.432,0,0,1,2.889.81,9.117,9.117,0,0,1,1.869,2.17,14.207,14.207,0,0,1,1.275,2.63,20.266,20.266,0,0,1,.807,2.89q0.3,1.485.467,2.85c0.056,0.62.1,1.29,0.128,1.99s0.042,1.38.042,2A13.988,13.988,0,0,1,973.2,4492.33Zm104.462,24.51-0.17-7.14c-0.12-3.96-.24-7.96-0.39-11.98s-0.29-8.04-.46-12.06q-0.345-7.65-.72-15.13t-0.64-15.12q-5.775.09-11.43,0.25-5.655.18-11.43,0.34-3.48,5.955-6.84,11.98a127.066,127.066,0,0,0-5.99,12.32c-1.64-4.41-3.18-8.85-4.63-13.29s-2.84-8.94-4.2-13.47q-6.12.6-11.94,0.94t-11.94.34q0.09,9.255.22,18.43t0.12,18.44q0,7.905-.42,15.72t-0.85,15.71c2.09-.17,4.18-0.34,6.24-0.51s4.18-.25,6.33-0.25c0.68,0,1.35.01,2,.04s1.29,0.04,1.91.04l-1.36-41.97q4.845,10.2,9.31,20.44t8.36,20.85l17.85-40.35q0.165,6.285.38,12.57t0.21,12.66q0,3.57-.04,7.01t-0.13,7.01c2.15-.23,4.33-0.38,6.54-0.47s4.42-.12,6.63-0.12c0.4,0,1.01.02,1.83,0.08s1.65,0.14,2.5.25c1.02,0.12,2.07.2,3.15,0.26v-3.82Zm65.29-11.56q-1.23-6.795-2.25-13.76-1.455-8.835-2.76-17.63-1.32-8.79-2.68-17.63-7.56-.255-15.12-0.26a111.071,111.071,0,0,0-12.28.68q-6.075.69-12.19,1.7-1.2,14.37-2.47,28.64t-2.46,28.71h13.08l2.64-11.3,20.9-.76q1.275,4.335,2.63,8.62t2.72,8.63l12.92-1.96Q1144.175,4512.075,1142.95,4505.28Zm-34.88-12.74a7.627,7.627,0,0,0,.3-1.28c0.14-.73.33-1.61,0.55-2.63s0.47-2.09.72-3.23,0.51-2.19.77-3.18,0.47-1.83.64-2.51a2.5,2.5,0,0,1,.42-1.11,2.1,2.1,0,0,1,.98-0.42,9.106,9.106,0,0,1,1.53-.21c0.54-.03,1.05-0.05,1.53-0.05h2.08a11.328,11.328,0,0,1,1.4.09c0.48,0.06.94,0.11,1.36,0.17a3.456,3.456,0,0,1,.81.17,4.638,4.638,0,0,1,1.06,2.25c0.37,1.28.69,2.69,0.98,4.25s0.53,3.03.76,4.42,0.37,2.33.43,2.84Zm108.29-19.46c-0.09-1.58-.22-3.21-0.39-4.88a45.079,45.079,0,0,0-.72-4.72,6.776,6.776,0,0,0-1.15-2.97,8.925,8.925,0,0,0-4.12-2.13,59.52,59.52,0,0,0-6.75-1.57q-3.66-.63-6.97-0.93c-2.21-.2-3.82-0.3-4.84-0.3q-8.835,0-17.71.89t-17.63,1.49q0.165,7.215.38,14.36t0.47,14.36q0.33,7.98.34,15.8v15.8c1.13-.11,2.26-0.2,3.39-0.25s2.27-.09,3.4-0.09c1.76,0,3.49.04,5.18,0.13a47.408,47.408,0,0,0,5.19-.04l0.68-17.68c0.51,0,1.72-.08,3.65-0.25s4.21-.38,6.84-0.64,5.42-.55,8.37-0.89,5.7-.69,8.28-1.06,4.79-.74,6.63-1.11,2.93-.75,3.27-1.14a10.621,10.621,0,0,0,2.12-3.74,30.194,30.194,0,0,0,1.32-5.1c0.31-1.81.54-3.6,0.68-5.35s0.21-3.26.21-4.5C1216.48,4475.83,1216.44,4474.67,1216.36,4473.08Zm-23.96,7.01a5.893,5.893,0,0,1-1.83,3.53,7.24,7.24,0,0,1-3.57,1.48,50.167,50.167,0,0,1-5.61.85q-2.97.3-5.69,0.43c-1.81.08-3.09,0.13-3.82,0.13q-0.255-4.08-.26-8.08c0-1.64-.01-3.28-0.04-4.92s-0.13-3.32-.3-5.02c2.16-.34,4.28-0.62,6.38-0.85a60.059,60.059,0,0,1,6.28-.34c0.29,0,.74.02,1.36,0.05s1.28,0.07,1.96.12,1.33,0.15,1.95.26a4.2,4.2,0,0,1,1.36.42,3.049,3.049,0,0,1,1.1,1.41,9.349,9.349,0,0,1,.64,2.12,21.985,21.985,0,0,1,.3,2.34c0.05,0.79.08,1.44,0.08,1.95A30.372,30.372,0,0,1,1192.4,4480.09Z" transform="translate(-717.156 -4453.12)"/>
</svg>
