<svg xmlns="http://www.w3.org/2000/svg" width="189.222" height="77.4" viewBox="0 0 189.222 77.4">
  <defs>
    <style>
      .cls-1 {
        fill: #97b0e3;
        fill-rule: evenodd;
      }
    </style>
  </defs>
  <path id="FAQ" class="cls-1" d="M912.809,6710.94c-0.312-2.74-.637-5.48-0.977-8.2q-6.712-.33-13.339-0.63t-13.254-.3q-4.928,0-9.728.13t-9.728.21v24.64q0,9.93-.085,19.75t-0.509,19.75l22.344-.76q0-6.375-.339-12.7t-1.19-12.7q3.823-.765,7.689-1.24t7.689-1.31l-2.379-8.5-14.1-.93-0.68-7.31q7.306-.675,14.486-0.93t14.571-.68A73.669,73.669,0,0,0,912.809,6710.94Zm59.643,39.13q-1.233-6.8-2.252-13.77-1.445-8.835-2.761-17.63t-2.676-17.63q-7.563-.255-15.123-0.25a111.071,111.071,0,0,0-12.277.68q-6.075.675-12.192,1.7-1.191,14.355-2.464,28.63t-2.464,28.72h13.084l2.634-11.3,20.9-.77q1.274,4.335,2.633,8.63t2.719,8.62l12.914-1.95Q973.682,6756.865,972.452,6750.07Zm-34.877-12.75a8.552,8.552,0,0,0,.3-1.27q0.21-1.11.552-2.64c0.226-1.02.467-2.09,0.722-3.22s0.51-2.2.765-3.19,0.467-1.83.637-2.51a2.358,2.358,0,0,1,.425-1.1,2.173,2.173,0,0,1,.977-0.43,9.108,9.108,0,0,1,1.529-.21c0.538-.03,1.048-0.04,1.529-0.04h2.082a13.624,13.624,0,0,1,1.4.08c0.48,0.06.934,0.12,1.359,0.17a3.861,3.861,0,0,1,.807.17,4.625,4.625,0,0,1,1.062,2.26c0.368,1.27.693,2.69,0.977,4.24s0.538,3.03.765,4.42,0.368,2.34.425,2.85Zm116.825-19.2c0-.9-0.02-1.84-0.05-2.8s-0.08-1.87-.17-2.72a18,18,0,0,0-.29-2.04,11.381,11.381,0,0,0-3.53-6.03,15.764,15.764,0,0,0-5.78-3.1,27.567,27.567,0,0,0-6.88-1.11c-2.41-.08-4.69-0.13-6.84-0.13-1.64,0-3.28.02-4.93,0.05s-3.28.07-4.92,0.12c-1.14.06-2.71,0.16-4.72,0.3s-4.2.36-6.58,0.64-4.82.59-7.31,0.93-4.814.73-6.966,1.15a57.277,57.277,0,0,0-5.565,1.36,7.052,7.052,0,0,0-3.016,1.49,8.115,8.115,0,0,0-1.784,3.65,34.288,34.288,0,0,0-.85,5.1c-0.17,1.81-.27,3.57-0.3,5.27s-0.043,3.08-.043,4.16v4.29q0,2.085.085,4.2c0,1.25.085,3.08,0.255,5.48s0.425,4.9.765,7.48a69.422,69.422,0,0,0,1.316,7.22,12.216,12.216,0,0,0,2,4.8,6.657,6.657,0,0,0,3.059,1.62,45.453,45.453,0,0,0,5.65,1.36q3.269,0.585,7.094,1.1t7.35,0.85q3.525,0.345,6.37.51c1.9,0.11,3.33.17,4.29,0.17h1.36a12.4,12.4,0,0,0,1.36-.08c1.64,2.32,3.19,4.67,4.63,7.05s2.99,4.75,4.63,7.13l12.58-2.97q-1.53-3.825-3.06-7.52t-3.15-7.52a23.3,23.3,0,0,0,2.3-.72c0.85-.31,1.71-0.67,2.59-1.06s1.73-.82,2.55-1.28a10.543,10.543,0,0,0,1.99-1.36,6.968,6.968,0,0,0,1.75-3.39,48.973,48.973,0,0,0,1.23-5.95q0.51-3.4.8-7.27t0.47-7.47c0.11-2.41.19-4.58,0.21-6.5s0.05-3.37.05-4.33v-2.13Zm-19.16,17.29a52.093,52.093,0,0,1-2.59,9.98l-5.7-11.64c-1.64.4-3.15,0.83-4.54,1.28s-2.73.96-4.04,1.53-2.6,1.19-3.9,1.87-2.7,1.39-4.17,2.12l5.27,8.5c-1.47-.06-2.76-0.13-3.87-0.22s-2.16-.21-3.18-0.38a28.281,28.281,0,0,1-3.15-.72c-1.07-.31-2.29-0.72-3.65-1.23-0.28-1.08-.58-2.47-0.89-4.17s-0.61-3.45-.893-5.26-0.51-3.57-.68-5.27-0.255-3.11-.255-4.25c0-.45.013-0.96,0.043-1.53a2.678,2.678,0,0,1,.382-1.36,5.069,5.069,0,0,1,2.593-1.44,47.719,47.719,0,0,1,4.97-1.28c1.92-.39,4.02-0.75,6.29-1.06s4.43-.58,6.5-0.8,3.93-.4,5.6-0.51,2.9-.17,3.7-0.17c0.34,0,.81.01,1.4,0.04s1.19,0.07,1.78.13a7.077,7.077,0,0,1,1.66.34,3.763,3.763,0,0,1,1.19.59,2.469,2.469,0,0,1,.55.93,6.467,6.467,0,0,1,.3,1.28,10.354,10.354,0,0,1,.09,1.36v1.1A65.722,65.722,0,0,1,1035.24,6735.41Z" transform="translate(-865.188 -6700.19)"/>
</svg>
