<svg xmlns="http://www.w3.org/2000/svg" width="143.687" height="60.21" viewBox="0 0 143.687 60.21">
  <defs>
    <style>
      .cls-1 {
        fill: #e8454a;
        fill-rule: evenodd;
      }
    </style>
  </defs>
  <path id="_222" data-name="222" class="cls-1" d="M761.047,2359.04c1.7-.91,3.4-1.82,5.076-2.75s3.346-1.87,5-2.82q1.278-.825,2.67-1.62a31.057,31.057,0,0,0,2.669-1.69c0.551-.4,1.328-0.99,2.331-1.76s2.031-1.61,3.083-2.49,2.018-1.75,2.895-2.63a10.4,10.4,0,0,0,1.767-2.14,9.05,9.05,0,0,0,.527-1.73,15.387,15.387,0,0,0,.3-2.26c0.049-.8.086-1.58,0.112-2.33s0.038-1.35.038-1.8q0-1.725-.075-3.54a20.758,20.758,0,0,0-.451-3.53,11.711,11.711,0,0,0-2.256-4.93,8.741,8.741,0,0,0-3.572-2.55,15.252,15.252,0,0,0-4.587-.94q-2.52-.15-5.376-0.15-1.656,0-4.738.15t-6.429.49a61.377,61.377,0,0,0-6.279.94,13.777,13.777,0,0,0-4.286,1.43,3.57,3.57,0,0,0-1.429,1.95,21.094,21.094,0,0,0-.864,3.08,25.2,25.2,0,0,0-.452,3.24q-0.112,1.575-.112,2.4a50.669,50.669,0,0,0,.451,6.7l11.655-1.58c-0.05-.45-0.088-0.91-0.113-1.36s-0.037-.87-0.037-1.28a7.579,7.579,0,0,1,.488-3.08c0.326-.7,1.215-1.18,2.67-1.43a21.538,21.538,0,0,1,2.895-.26c1.027-.02,2.042-0.04,3.045-0.04q3.534,0,5.151,1.32t1.617,5.37a5.036,5.036,0,0,1-.865,2.97,27.716,27.716,0,0,1-1.992,2.52,32.228,32.228,0,0,1-4.963,4.44,64.02,64.02,0,0,1-5.79,3.76,66.1,66.1,0,0,1-6.166,3.12q-3.159,1.395-6.166,2.52,0.45,5.79.939,11.47t0.865,11.39l39.327-1.43q0.227-4.515.3-9.02t0.226-9.03q-14.589.675-29.1,0.91h0Zm50.08,0c1.7-.91,3.4-1.82,5.076-2.75s3.346-1.87,5-2.82q1.278-.825,2.67-1.62a31.057,31.057,0,0,0,2.669-1.69c0.551-.4,1.328-0.99,2.331-1.76s2.031-1.61,3.083-2.49,2.018-1.75,2.895-2.63a10.4,10.4,0,0,0,1.767-2.14,9.05,9.05,0,0,0,.527-1.73,15.387,15.387,0,0,0,.3-2.26c0.049-.8.087-1.58,0.112-2.33s0.038-1.35.038-1.8q0-1.725-.075-3.54a20.758,20.758,0,0,0-.451-3.53,11.711,11.711,0,0,0-2.256-4.93,8.741,8.741,0,0,0-3.572-2.55,15.252,15.252,0,0,0-4.587-.94q-2.52-.15-5.376-0.15-1.656,0-4.738.15t-6.429.49a61.377,61.377,0,0,0-6.279.94,13.787,13.787,0,0,0-4.286,1.43,3.57,3.57,0,0,0-1.429,1.95,21.094,21.094,0,0,0-.864,3.08,25.023,25.023,0,0,0-.451,3.24q-0.114,1.575-.113,2.4a50.669,50.669,0,0,0,.451,6.7l11.655-1.58c-0.05-.45-0.088-0.91-0.113-1.36s-0.037-.87-0.037-1.28a7.559,7.559,0,0,1,.489-3.08c0.325-.7,1.214-1.18,2.669-1.43a21.538,21.538,0,0,1,2.895-.26c1.027-.02,2.042-0.04,3.045-0.04q3.534,0,5.151,1.32t1.617,5.37a5.036,5.036,0,0,1-.865,2.97,27.542,27.542,0,0,1-1.992,2.52,32.228,32.228,0,0,1-4.963,4.44,64.02,64.02,0,0,1-5.79,3.76,66.1,66.1,0,0,1-6.166,3.12q-3.159,1.395-6.166,2.52,0.45,5.79.94,11.47t0.864,11.39l39.327-1.43q0.226-4.515.3-9.02t0.226-9.03q-14.589.675-29.1,0.91h0Zm50.08,0c1.7-.91,3.4-1.82,5.076-2.75s3.346-1.87,5-2.82q1.278-.825,2.67-1.62a31.057,31.057,0,0,0,2.669-1.69c0.551-.4,1.328-0.99,2.331-1.76s2.031-1.61,3.083-2.49,2.018-1.75,2.9-2.63a10.445,10.445,0,0,0,1.768-2.14,9.056,9.056,0,0,0,.526-1.73,15.387,15.387,0,0,0,.3-2.26c0.049-.8.087-1.58,0.112-2.33s0.038-1.35.038-1.8q0-1.725-.075-3.54a20.758,20.758,0,0,0-.451-3.53,11.711,11.711,0,0,0-2.256-4.93,8.741,8.741,0,0,0-3.572-2.55,15.252,15.252,0,0,0-4.587-.94q-2.52-.15-5.376-0.15-1.656,0-4.738.15t-6.429.49a61.377,61.377,0,0,0-6.279.94,13.787,13.787,0,0,0-4.286,1.43,3.565,3.565,0,0,0-1.428,1.95,20.969,20.969,0,0,0-.865,3.08,25.023,25.023,0,0,0-.451,3.24q-0.114,1.575-.113,2.4a50.669,50.669,0,0,0,.451,6.7l11.655-1.58c-0.05-.45-0.088-0.91-0.113-1.36s-0.037-.87-0.037-1.28a7.559,7.559,0,0,1,.489-3.08c0.325-.7,1.215-1.18,2.669-1.43a21.538,21.538,0,0,1,2.895-.26c1.027-.02,2.042-0.04,3.046-0.04q3.532,0,5.15,1.32t1.617,5.37a5.036,5.036,0,0,1-.865,2.97,27.542,27.542,0,0,1-1.992,2.52,32.228,32.228,0,0,1-4.963,4.44,63.88,63.88,0,0,1-5.79,3.76,66.1,66.1,0,0,1-6.166,3.12q-3.159,1.395-6.166,2.52,0.45,5.79.94,11.47t0.864,11.39l39.328-1.43q0.225-4.515.3-9.02t0.226-9.03q-14.589.675-29.1,0.91h0Z" transform="translate(-746.625 -2317.38)"/>
</svg>
