<svg xmlns="http://www.w3.org/2000/svg" width="206.876" height="59.53" viewBox="0 0 206.876 59.53">
  <defs>
    <style>
      .cls-1 {
        fill: #e8454a;
        fill-rule: evenodd;
      }
    </style>
  </defs>
  <path id="_8888" data-name="8888" class="cls-1" d="M467.68,2363.5c-0.051-1.1-.126-2.22-0.226-3.34s-0.226-2.22-.376-3.27-0.327-2.01-.526-2.86a4.271,4.271,0,0,0-1.053-1.81,14.068,14.068,0,0,0-1.88-1.69,21.427,21.427,0,0,0-2.105-1.39c-0.7-.4-1.305-0.73-1.805-0.98,0.15-.1.564-0.38,1.241-0.86s1.4-.99,2.18-1.54,1.478-1.08,2.106-1.58a2.262,2.262,0,0,0,1.316-2.22c0.049-.53.087-1.08,0.112-1.66s0.038-1.13.038-1.69v-4.92a22.2,22.2,0,0,0-.3-3.65,10.666,10.666,0,0,0-1.015-3.04,26.387,26.387,0,0,0-4.737-6.89,5.748,5.748,0,0,0-2.67-1.72,13.939,13.939,0,0,0-2.1-.23c-0.953-.05-1.955-0.08-3.008-0.08h-5.339c-1.855,0-3.684.02-5.489,0.04s-3.635.07-5.489,0.12c-1.154.05-2.269,0.12-3.346,0.22a13.482,13.482,0,0,0-3.083.64,11.305,11.305,0,0,0-2.783,1.39,10.394,10.394,0,0,0-2.444,2.41,4.319,4.319,0,0,0-.639,1.95c-0.125.9-.225,1.88-0.3,2.93s-0.113,2.09-.113,3.09v2.25a25.553,25.553,0,0,0,.15,2.6c0.1,0.98.25,1.98,0.451,3.01s0.414,2.01.639,2.97a23.473,23.473,0,0,0,.715,2.48,2.835,2.835,0,0,0,.977,1.28,9.267,9.267,0,0,0,1.655,1.05c0.6,0.3,1.2.56,1.8,0.79s1.1,0.39,1.5.49q-0.452.15-1.24,0.45c-0.527.2-1.091,0.41-1.692,0.64s-1.166.45-1.692,0.67a5.417,5.417,0,0,0-1.166.64,5.777,5.777,0,0,0-1.428,2.18,15.117,15.117,0,0,0-.79,2.86,24.254,24.254,0,0,0-.338,3.01c-0.051,1-.076,1.88-0.076,2.63,0,0.9.025,1.76,0.076,2.56a12.265,12.265,0,0,0,.451,2.55c0.15,0.71.413,1.68,0.789,2.94a33.178,33.178,0,0,0,1.391,3.76,16.427,16.427,0,0,0,1.918,3.31,3.29,3.29,0,0,0,2.369,1.5q1.578,0.15,3.684.15h3.985c1.454,0,2.933-.03,4.437-0.08h12.219q1.692,0,3.083-.03,1.39-.045,2.331-0.12a9.544,9.544,0,0,0,1.241-.15,5.7,5.7,0,0,0,1.5-.82,18.623,18.623,0,0,0,1.654-1.39,15.126,15.126,0,0,0,1.467-1.62c0.425-.55.763-1.03,1.015-1.43a6.288,6.288,0,0,0,.714-2.71q0.113-1.65.113-2.85C467.755,2365.58,467.729,2364.61,467.68,2363.5Zm-14.551-25.71c-0.026.5-.063,1.01-0.112,1.54a13.725,13.725,0,0,1-.226,1.5,2.707,2.707,0,0,1-.376,1.02,4.293,4.293,0,0,1-2.218,1.12,17.709,17.709,0,0,1-3.271.49c-1.154.08-2.294,0.1-3.422,0.08s-2.043-.04-2.744-0.04h-1.279a12.589,12.589,0,0,1-1.579-.11,15.269,15.269,0,0,1-1.541-.3,2.415,2.415,0,0,1-1.091-.57,3.562,3.562,0,0,1-.639-1.69q-0.264-1.32-.413-2.82c-0.1-1-.177-1.98-0.226-2.93s-0.075-1.63-.075-2.03a13.046,13.046,0,0,1,.15-1.62q0.15-1.08.414-2.22a18.173,18.173,0,0,1,.6-2.06,3.031,3.031,0,0,1,.79-1.32,4.929,4.929,0,0,1,1.955-.53c1.053-.15,2.2-0.27,3.459-0.37s2.444-.18,3.572-0.23,1.867-.07,2.218-0.07c0.2,0,.514.01,0.94,0.03s0.852,0.05,1.278.08a9.926,9.926,0,0,1,1.241.15,1.646,1.646,0,0,1,.827.34,3.872,3.872,0,0,1,.865,2.03q0.339,1.575.564,3.42t0.3,3.57c0.049,1.16.075,1.96,0.075,2.41C453.167,2336.91,453.154,2337.29,453.129,2337.79Zm0.715,23.16c-0.1,1-.252,2.03-0.451,3.08a22.907,22.907,0,0,1-.752,2.93,2.784,2.784,0,0,1-1.053,1.66,8.935,8.935,0,0,1-2.03.3c-1.154.1-2.407,0.17-3.76,0.22s-2.658.09-3.91,0.12-2.057.03-2.407,0.03h-1.428q-0.452,0-.827-0.03a1.767,1.767,0,0,1-.527-0.12,2.735,2.735,0,0,1-1.2-1.46,16.192,16.192,0,0,1-.9-2.64c-0.252-.97-0.451-1.93-0.6-2.85a14.41,14.41,0,0,1-.225-2.07,10.728,10.728,0,0,1,.15-1.51c0.1-.65.226-1.31,0.376-1.99a13.027,13.027,0,0,1,.564-1.88,3.066,3.066,0,0,1,.789-1.24,5.2,5.2,0,0,1,2.256-.75c1.153-.2,2.394-0.36,3.722-0.49s2.595-.21,3.8-0.26,2.055-.08,2.556-0.08,1.191,0.02,2.068.04a3.557,3.557,0,0,1,1.843.41,3.334,3.334,0,0,1,1.09,1.24,7.6,7.6,0,0,1,.639,1.7,11.319,11.319,0,0,1,.3,1.84c0.049,0.63.075,1.19,0.075,1.69C453.994,2359.24,453.944,2359.94,453.844,2360.95Zm67.976,2.55c-0.05-1.1-.125-2.22-0.225-3.34s-0.226-2.22-.376-3.27-0.327-2.01-.527-2.86a4.258,4.258,0,0,0-1.052-1.81,14.13,14.13,0,0,0-1.88-1.69,21.32,21.32,0,0,0-2.106-1.39c-0.7-.4-1.3-0.73-1.8-0.98,0.15-.1.563-0.38,1.24-0.86s1.4-.99,2.181-1.54,1.478-1.08,2.105-1.58a4.5,4.5,0,0,0,1.091-1.06,4.436,4.436,0,0,0,.225-1.16c0.05-.53.087-1.08,0.113-1.66s0.038-1.13.038-1.69v-4.92a22.2,22.2,0,0,0-.3-3.65,10.7,10.7,0,0,0-1.015-3.04,26.423,26.423,0,0,0-4.738-6.89,5.746,5.746,0,0,0-2.669-1.72,13.955,13.955,0,0,0-2.105-.23c-0.953-.05-1.956-0.08-3.008-0.08h-5.339c-1.855,0-3.685.02-5.489,0.04s-3.636.07-5.49,0.12c-1.153.05-2.268,0.12-3.346,0.22a13.5,13.5,0,0,0-3.083.64,11.3,11.3,0,0,0-2.782,1.39,10.376,10.376,0,0,0-2.444,2.41,4.3,4.3,0,0,0-.639,1.95c-0.126.9-.226,1.88-0.3,2.93s-0.113,2.09-.113,3.09v2.25a25.579,25.579,0,0,0,.151,2.6c0.1,0.98.25,1.98,0.451,3.01s0.414,2.01.639,2.97a23.731,23.731,0,0,0,.714,2.48,2.837,2.837,0,0,0,.978,1.28,9.294,9.294,0,0,0,1.654,1.05c0.6,0.3,1.2.56,1.805,0.79s1.1,0.39,1.5.49q-0.451.15-1.241,0.45c-0.526.2-1.09,0.41-1.692,0.64s-1.165.45-1.692,0.67a5.43,5.43,0,0,0-1.165.64,5.767,5.767,0,0,0-1.429,2.18,15.19,15.19,0,0,0-.789,2.86,24.257,24.257,0,0,0-.339,3.01c-0.05,1-.075,1.88-0.075,2.63,0,0.9.025,1.76,0.075,2.56a12.4,12.4,0,0,0,.451,2.55c0.151,0.71.414,1.68,0.79,2.94a33.178,33.178,0,0,0,1.391,3.76,16.38,16.38,0,0,0,1.918,3.31,3.289,3.289,0,0,0,2.368,1.5q1.579,0.15,3.685.15h3.985c1.453,0,2.933-.03,4.437-0.08h12.219q1.692,0,3.083-.03,1.39-.045,2.331-0.12a9.57,9.57,0,0,0,1.241-.15,5.716,5.716,0,0,0,1.5-.82,18.623,18.623,0,0,0,1.654-1.39,15.008,15.008,0,0,0,1.466-1.62c0.425-.55.764-1.03,1.015-1.43a6.287,6.287,0,0,0,.715-2.71q0.112-1.65.112-2.85C521.9,2365.58,521.87,2364.61,521.82,2363.5Zm-14.55-25.71c-0.026.5-.064,1.01-0.113,1.54a13.729,13.729,0,0,1-.225,1.5,2.707,2.707,0,0,1-.376,1.02,4.3,4.3,0,0,1-2.219,1.12,17.7,17.7,0,0,1-3.271.49c-1.153.08-2.293,0.1-3.421,0.08s-2.043-.04-2.745-0.04h-1.278a12.577,12.577,0,0,1-1.579-.11,15.291,15.291,0,0,1-1.542-.3,2.406,2.406,0,0,1-1.09-.57,3.562,3.562,0,0,1-.639-1.69q-0.264-1.32-.414-2.82c-0.1-1-.176-1.98-0.225-2.93s-0.075-1.63-.075-2.03a13.046,13.046,0,0,1,.15-1.62q0.15-1.08.414-2.22a17.969,17.969,0,0,1,.6-2.06,3.031,3.031,0,0,1,.79-1.32,4.929,4.929,0,0,1,1.955-.53c1.052-.15,2.2-0.27,3.459-0.37s2.444-.18,3.571-0.23,1.867-.07,2.219-0.07c0.2,0,.513.01,0.94,0.03s0.851,0.05,1.278.08a9.949,9.949,0,0,1,1.241.15,1.655,1.655,0,0,1,.827.34,3.872,3.872,0,0,1,.865,2.03q0.338,1.575.564,3.42t0.3,3.57c0.05,1.16.076,1.96,0.076,2.41C507.308,2336.91,507.3,2337.29,507.27,2337.79Zm0.714,23.16c-0.1,1-.251,2.03-0.451,3.08a22.742,22.742,0,0,1-.752,2.93,2.779,2.779,0,0,1-1.053,1.66,8.912,8.912,0,0,1-2.03.3c-1.154.1-2.406,0.17-3.76,0.22s-2.657.09-3.91,0.12-2.056.03-2.406,0.03h-1.429c-0.3,0-.577-0.01-0.827-0.03a1.767,1.767,0,0,1-.526-0.12,2.735,2.735,0,0,1-1.2-1.46,16.191,16.191,0,0,1-.9-2.64c-0.251-.97-0.451-1.93-0.6-2.85a14.3,14.3,0,0,1-.226-2.07,10.61,10.61,0,0,1,.151-1.51c0.1-.65.225-1.31,0.376-1.99a13.155,13.155,0,0,1,.563-1.88,3.067,3.067,0,0,1,.79-1.24,5.19,5.19,0,0,1,2.256-.75c1.152-.2,2.393-0.36,3.722-0.49s2.594-.21,3.8-0.26,2.055-.08,2.557-0.08,1.19,0.02,2.068.04a3.553,3.553,0,0,1,1.842.41,3.345,3.345,0,0,1,1.091,1.24,7.7,7.7,0,0,1,.639,1.7,11.21,11.21,0,0,1,.3,1.84c0.05,0.63.076,1.19,0.076,1.69C508.135,2359.24,508.084,2359.94,507.984,2360.95Zm67.977,2.55c-0.051-1.1-.126-2.22-0.226-3.34s-0.225-2.22-.376-3.27-0.326-2.01-.526-2.86a4.261,4.261,0,0,0-1.053-1.81,14.007,14.007,0,0,0-1.88-1.69,21.309,21.309,0,0,0-2.105-1.39c-0.7-.4-1.3-0.73-1.8-0.98,0.151-.1.564-0.38,1.241-0.86s1.4-.99,2.181-1.54,1.478-1.08,2.105-1.58a2.262,2.262,0,0,0,1.316-2.22c0.049-.53.087-1.08,0.113-1.66s0.037-1.13.037-1.69v-4.92a22.3,22.3,0,0,0-.3-3.65,10.706,10.706,0,0,0-1.016-3.04,26.387,26.387,0,0,0-4.737-6.89,5.751,5.751,0,0,0-2.669-1.72,13.972,13.972,0,0,0-2.106-.23c-0.953-.05-1.955-0.08-3.008-0.08h-5.338c-1.856,0-3.685.02-5.49,0.04s-3.635.07-5.489,0.12c-1.154.05-2.269,0.12-3.346,0.22a13.482,13.482,0,0,0-3.083.64,11.282,11.282,0,0,0-2.782,1.39,10.376,10.376,0,0,0-2.444,2.41,4.3,4.3,0,0,0-.639,1.95c-0.126.9-.226,1.88-0.3,2.93s-0.113,2.09-.113,3.09v2.25a25.553,25.553,0,0,0,.15,2.6c0.1,0.98.251,1.98,0.452,3.01s0.413,2.01.639,2.97a23.489,23.489,0,0,0,.714,2.48,2.83,2.83,0,0,0,.978,1.28,9.223,9.223,0,0,0,1.654,1.05c0.6,0.3,1.2.56,1.805,0.79a15.728,15.728,0,0,0,1.5.49q-0.452.15-1.241,0.45c-0.527.2-1.091,0.41-1.692,0.64s-1.166.45-1.692,0.67a5.467,5.467,0,0,0-1.166.64,5.777,5.777,0,0,0-1.428,2.18,15.117,15.117,0,0,0-.79,2.86,24.254,24.254,0,0,0-.338,3.01c-0.051,1-.075,1.88-0.075,2.63,0,0.9.024,1.76,0.075,2.56a12.332,12.332,0,0,0,.451,2.55c0.15,0.71.414,1.68,0.79,2.94a32.987,32.987,0,0,0,1.391,3.76,16.425,16.425,0,0,0,1.917,3.31,3.29,3.29,0,0,0,2.369,1.5q1.579,0.15,3.684.15h3.986c1.453,0,2.932-.03,4.436-0.08h12.219q1.692,0,3.083-.03,1.392-.045,2.332-0.12a9.546,9.546,0,0,0,1.24-.15,5.7,5.7,0,0,0,1.5-.82,18.623,18.623,0,0,0,1.654-1.39,15.021,15.021,0,0,0,1.467-1.62c0.425-.55.763-1.03,1.015-1.43a6.274,6.274,0,0,0,.714-2.71q0.113-1.65.113-2.85C576.036,2365.58,576.01,2364.61,575.961,2363.5Zm-14.55-25.71c-0.026.5-.064,1.01-0.113,1.54a13.725,13.725,0,0,1-.226,1.5,2.69,2.69,0,0,1-.376,1.02,4.293,4.293,0,0,1-2.218,1.12,17.7,17.7,0,0,1-3.271.49c-1.154.08-2.294,0.1-3.421,0.08s-2.044-.04-2.745-0.04h-1.278a12.577,12.577,0,0,1-1.579-.11,15.236,15.236,0,0,1-1.542-.3,2.406,2.406,0,0,1-1.09-.57,3.551,3.551,0,0,1-.639-1.69q-0.265-1.32-.414-2.82c-0.1-1-.176-1.98-0.226-2.93s-0.075-1.63-.075-2.03a13.1,13.1,0,0,1,.151-1.62q0.148-1.08.413-2.22a17.964,17.964,0,0,1,.6-2.06,3.021,3.021,0,0,1,.789-1.32,4.941,4.941,0,0,1,1.955-.53c1.053-.15,2.206-0.27,3.459-0.37s2.444-.18,3.572-0.23,1.867-.07,2.218-0.07c0.2,0,.514.01,0.94,0.03s0.852,0.05,1.279.08a9.91,9.91,0,0,1,1.24.15,1.646,1.646,0,0,1,.827.34,3.856,3.856,0,0,1,.865,2.03q0.339,1.575.564,3.42t0.3,3.57c0.049,1.16.075,1.96,0.075,2.41C561.448,2336.91,561.435,2337.29,561.411,2337.79Zm0.714,23.16c-0.1,1-.252,2.03-0.451,3.08a22.742,22.742,0,0,1-.752,2.93,2.779,2.779,0,0,1-1.053,1.66,8.935,8.935,0,0,1-2.03.3c-1.154.1-2.406,0.17-3.76,0.22s-2.658.09-3.91,0.12-2.056.03-2.406,0.03h-1.429q-0.451,0-.827-0.03a1.767,1.767,0,0,1-.527-0.12,2.735,2.735,0,0,1-1.2-1.46,16.192,16.192,0,0,1-.9-2.64c-0.252-.97-0.451-1.93-0.6-2.85a14.41,14.41,0,0,1-.225-2.07,10.728,10.728,0,0,1,.15-1.51c0.1-.65.226-1.31,0.376-1.99a13.284,13.284,0,0,1,.564-1.88,3.067,3.067,0,0,1,.79-1.24,5.19,5.19,0,0,1,2.256-.75c1.152-.2,2.393-0.36,3.722-0.49s2.594-.21,3.8-0.26,2.055-.08,2.557-0.08,1.19,0.02,2.068.04a3.553,3.553,0,0,1,1.842.41,3.334,3.334,0,0,1,1.09,1.24,7.6,7.6,0,0,1,.639,1.7,11.106,11.106,0,0,1,.3,1.84c0.049,0.63.075,1.19,0.075,1.69C562.275,2359.24,562.225,2359.94,562.125,2360.95Zm67.976,2.55c-0.05-1.1-.125-2.22-0.225-3.34s-0.226-2.22-.376-3.27-0.327-2.01-.526-2.86a4.271,4.271,0,0,0-1.053-1.81,14.068,14.068,0,0,0-1.88-1.69,21.32,21.32,0,0,0-2.106-1.39c-0.7-.4-1.3-0.73-1.8-0.98,0.15-.1.564-0.38,1.241-0.86s1.4-.99,2.18-1.54,1.478-1.08,2.106-1.58a2.262,2.262,0,0,0,1.316-2.22c0.049-.53.087-1.08,0.112-1.66s0.038-1.13.038-1.69v-4.92a22.2,22.2,0,0,0-.3-3.65,10.666,10.666,0,0,0-1.015-3.04,26.387,26.387,0,0,0-4.737-6.89,5.748,5.748,0,0,0-2.67-1.72,13.939,13.939,0,0,0-2.1-.23c-0.953-.05-1.955-0.08-3.008-0.08h-5.339c-1.855,0-3.684.02-5.489,0.04s-3.635.07-5.489,0.12c-1.154.05-2.269,0.12-3.347,0.22a13.5,13.5,0,0,0-3.083.64,11.316,11.316,0,0,0-2.782,1.39,10.394,10.394,0,0,0-2.444,2.41,4.319,4.319,0,0,0-.639,1.95c-0.126.9-.225,1.88-0.3,2.93s-0.112,2.09-.112,3.09v2.25a25.553,25.553,0,0,0,.15,2.6c0.1,0.98.25,1.98,0.451,3.01s0.414,2.01.639,2.97a23.473,23.473,0,0,0,.715,2.48,2.835,2.835,0,0,0,.977,1.28,9.267,9.267,0,0,0,1.655,1.05c0.6,0.3,1.2.56,1.8,0.79s1.1,0.39,1.5.49q-0.452.15-1.241,0.45c-0.526.2-1.09,0.41-1.691,0.64s-1.166.45-1.692,0.67a5.417,5.417,0,0,0-1.166.64,5.791,5.791,0,0,0-1.429,2.18,15.19,15.19,0,0,0-.789,2.86,24.449,24.449,0,0,0-.339,3.01c-0.05,1-.075,1.88-0.075,2.63,0,0.9.025,1.76,0.075,2.56a12.337,12.337,0,0,0,.452,2.55c0.15,0.71.413,1.68,0.789,2.94a33.178,33.178,0,0,0,1.391,3.76,16.38,16.38,0,0,0,1.918,3.31,3.289,3.289,0,0,0,2.368,1.5q1.58,0.15,3.685.15H600.4c1.454,0,2.933-.03,4.437-0.08h12.219q1.692,0,3.083-.03,1.391-.045,2.331-0.12a9.57,9.57,0,0,0,1.241-.15,5.7,5.7,0,0,0,1.5-.82,18.623,18.623,0,0,0,1.654-1.39,15.008,15.008,0,0,0,1.466-1.62c0.426-.55.764-1.03,1.016-1.43a6.288,6.288,0,0,0,.714-2.71q0.113-1.65.113-2.85C630.177,2365.58,630.151,2364.61,630.1,2363.5Zm-14.55-25.71c-0.026.5-.063,1.01-0.113,1.54a13.491,13.491,0,0,1-.225,1.5,2.707,2.707,0,0,1-.376,1.02,4.3,4.3,0,0,1-2.218,1.12,17.709,17.709,0,0,1-3.271.49c-1.154.08-2.294,0.1-3.422,0.08s-2.043-.04-2.744-0.04H601.9a12.589,12.589,0,0,1-1.579-.11,15.215,15.215,0,0,1-1.541-.3,2.415,2.415,0,0,1-1.091-.57,3.562,3.562,0,0,1-.639-1.69q-0.264-1.32-.413-2.82c-0.1-1-.177-1.98-0.226-2.93s-0.075-1.63-.075-2.03a13.046,13.046,0,0,1,.15-1.62q0.15-1.08.414-2.22a18.173,18.173,0,0,1,.6-2.06,3.031,3.031,0,0,1,.79-1.32,4.929,4.929,0,0,1,1.955-.53c1.053-.15,2.2-0.27,3.459-0.37s2.444-.18,3.572-0.23,1.867-.07,2.218-0.07q0.3,0,.94.03c0.425,0.03.852,0.05,1.278,0.08a9.926,9.926,0,0,1,1.241.15,1.646,1.646,0,0,1,.827.34,3.872,3.872,0,0,1,.865,2.03q0.337,1.575.564,3.42t0.3,3.57c0.049,1.16.075,1.96,0.075,2.41C615.589,2336.91,615.576,2337.29,615.551,2337.79Zm0.715,23.16c-0.1,1-.252,2.03-0.452,3.08a22.742,22.742,0,0,1-.752,2.93,2.779,2.779,0,0,1-1.052,1.66,8.937,8.937,0,0,1-2.031.3c-1.153.1-2.406,0.17-3.759,0.22s-2.658.09-3.911,0.12-2.056.03-2.406,0.03h-1.428q-0.452,0-.828-0.03a1.767,1.767,0,0,1-.526-0.12,2.735,2.735,0,0,1-1.2-1.46,16.192,16.192,0,0,1-.9-2.64c-0.252-.97-0.452-1.93-0.6-2.85a14.446,14.446,0,0,1-.226-2.07,10.762,10.762,0,0,1,.151-1.51c0.1-.65.225-1.31,0.376-1.99a13.027,13.027,0,0,1,.564-1.88,3.066,3.066,0,0,1,.789-1.24,5.19,5.19,0,0,1,2.256-.75c1.153-.2,2.393-0.36,3.722-0.49s2.595-.21,3.8-0.26,2.055-.08,2.556-0.08,1.191,0.02,2.068.04a3.55,3.55,0,0,1,1.842.41,3.328,3.328,0,0,1,1.091,1.24,7.6,7.6,0,0,1,.639,1.7,11.319,11.319,0,0,1,.3,1.84c0.049,0.63.075,1.19,0.075,1.69C616.416,2359.24,616.365,2359.94,616.266,2360.95Z" transform="translate(-423.312 -2318.09)"/>
</svg>
