<svg xmlns="http://www.w3.org/2000/svg" width="366.53" height="69.25" viewBox="0 0 366.53 69.25">
  <defs>
    <style>
      .cls-1 {
        fill: #97b0e3;
        fill-rule: evenodd;
      }
    </style>
  </defs>
  <path id="Rarity_" data-name="Rarity " class="cls-1" d="M1186.93,1636a18.362,18.362,0,0,0-6.67-7.26,16.718,16.718,0,0,0-4.04-1.79,34.881,34.881,0,0,0-4.67-1.06,39.765,39.765,0,0,0-4.8-.47c-1.59-.05-3.06-0.08-4.42-0.08q-7.995,0-15.93.51-7.95.51-15.93,0.93-0.51,13.77-.77,27.53-0.075,7.725-.59,15.5t-1.1,15.59c1.58,0.17,3.15.29,4.71,0.34s3.16,0.09,4.8.09q4.845,0,9.69-.26l-0.43-19.28c1.81-.11,3.64-0.26,5.48-0.43s3.7-.31,5.57-0.42a93.8,93.8,0,0,1,3.82,12.15,97.493,97.493,0,0,1,2.04,12.66l24.81-.6a235.6,235.6,0,0,0-14.7-28.71q6.96-.345,11.21-4.34t4.25-10.96A20.873,20.873,0,0,0,1186.93,1636Zm-17.42,9.73c-0.03.68-.06,1.37-0.09,2.08a16.364,16.364,0,0,1-.21,2.04,3.234,3.234,0,0,1-.42,1.31,4.152,4.152,0,0,1-2.08,1.24,21.306,21.306,0,0,1-3.23.72c-1.17.17-2.3,0.28-3.4,0.34s-1.94.08-2.51,0.08c-1.3,0-2.63-.05-3.99-0.17a28.276,28.276,0,0,1-3.91-.59l-2.29-16.48c2.15-.34,4.31-0.63,6.5-0.85a63.5,63.5,0,0,1,6.67-.34c0.28,0,.77.01,1.48,0.04s1.45,0.08,2.21.17,1.49,0.18,2.17.3a3.116,3.116,0,0,1,1.44.51,3.357,3.357,0,0,1,.94,1.57,15.11,15.11,0,0,1,.51,2.29c0.11,0.82.18,1.63,0.21,2.42s0.04,1.42.04,1.87C1169.55,1644.57,1169.54,1645.05,1169.51,1645.73Zm81.56,28.71q-1.23-6.8-2.25-13.76-1.44-8.835-2.76-17.63t-2.68-17.63q-7.56-.255-15.12-0.25a108.686,108.686,0,0,0-12.28.68q-6.075.675-12.19,1.7-1.185,14.355-2.46,28.63t-2.47,28.71h13.09l2.63-11.3,20.9-.76q1.275,4.335,2.63,8.62t2.72,8.63l12.92-1.96C1252.78,1683.53,1251.89,1678.98,1251.07,1674.44Zm-34.88-12.74a7.671,7.671,0,0,0,.3-1.27c0.14-.74.33-1.62,0.55-2.64s0.47-2.09.73-3.23,0.51-2.19.76-3.18,0.47-1.83.64-2.51a2.369,2.369,0,0,1,.42-1.1,2.2,2.2,0,0,1,.98-0.43,9.106,9.106,0,0,1,1.53-.21c0.54-.03,1.05-0.04,1.53-0.04h2.08a13.6,13.6,0,0,1,1.4.08c0.48,0.06.94,0.12,1.36,0.17a3.924,3.924,0,0,1,.81.17,4.638,4.638,0,0,1,1.06,2.25c0.37,1.28.69,2.69,0.98,4.25s0.54,3.03.76,4.42,0.37,2.34.43,2.85Zm105.23-25.7a18.29,18.29,0,0,0-6.67-7.26,16.718,16.718,0,0,0-4.04-1.79,34.532,34.532,0,0,0-4.67-1.06,39.374,39.374,0,0,0-4.8-.47c-1.59-.05-3.06-0.08-4.42-0.08q-7.98,0-15.93.51t-15.93.93q-0.51,13.77-.76,27.53-0.09,7.725-.6,15.5t-1.1,15.59c1.58,0.17,3.16.29,4.71,0.34s3.16,0.09,4.8.09q4.845,0,9.69-.26l-0.43-19.28c1.82-.11,3.64-0.26,5.48-0.43s3.7-.31,5.57-0.42a92.272,92.272,0,0,1,3.82,12.15,95.814,95.814,0,0,1,2.04,12.66l24.81-.6a235.6,235.6,0,0,0-14.7-28.71c4.65-.23,8.38-1.67,11.22-4.34s4.25-6.31,4.25-10.96A20.76,20.76,0,0,0,1321.42,1636Zm-17.42,9.73c-0.03.68-.06,1.37-0.08,2.08a14.644,14.644,0,0,1-.22,2.04,3.234,3.234,0,0,1-.42,1.31,4.152,4.152,0,0,1-2.08,1.24,21.037,21.037,0,0,1-3.23.72c-1.16.17-2.29,0.28-3.4,0.34s-1.94.08-2.51,0.08c-1.3,0-2.63-.05-3.99-0.17a28.276,28.276,0,0,1-3.91-.59l-2.29-16.48c2.15-.34,4.32-0.63,6.5-0.85a63.5,63.5,0,0,1,6.67-.34c0.28,0,.78.01,1.49,0.04s1.44,0.08,2.2.17,1.49,0.18,2.17.3a3.211,3.211,0,0,1,1.45.51,3.432,3.432,0,0,1,.93,1.57,13.026,13.026,0,0,1,.51,2.29c0.11,0.82.18,1.63,0.21,2.42s0.04,1.42.04,1.87C1304.04,1644.57,1304.03,1645.05,1304,1645.73Zm44.27-18.57q-9.135.48-18.4,0.81c0.12,2.38.21,4.74,0.3,7.09s0.18,4.72.3,7.1l8.07,1.02q0.585,7.9,1.15,15.72,0.54,7.815.97,15.8l-5.52.08q0.255,4.17.34,8.2c0.06,2.69.08,5.43,0.08,8.2l30.51-.51a28.7,28.7,0,0,1-.56-4.16c-0.08-1.42-.12-2.83-0.12-4.25v-5.1c0-1.7.05-3.37,0.17-5.01l-8.67-.17q-0.09-3.57-.13-7.01t-0.04-7.01c0-1.98.01-3.93,0.04-5.86s0.07-3.88.13-5.86l9.43,0.34q0.165-5.1.09-10.24a101.853,101.853,0,0,1,.34-10.32Q1357.39,1626.7,1348.27,1627.16Zm78.2,4.76c-0.11-2.29-.28-4.66-0.51-7.09q-12.66-.345-25.23-0.81t-25.32-.72q0.09,6.2.17,12.4t0.34,12.49q1.44,0.09,2.85.09h2.84c1.7,0,3.39-.03,5.06-0.09s3.33-.11,4.97-0.17q0.33,5.19.59,10.32,0.255,5.145.26,10.24t-0.13,10.24q-0.12,5.145-.3,10.32c0.68,0,1.38.02,2.09,0.04s1.43,0.05,2.16.05c2.04,0,4.08-.05,6.12-0.13s4.08-.18,6.12-0.3q0.42-5.865.72-11.76t0.3-11.86c0-3.23.05-6.45,0.17-9.68s0.28-6.49.51-9.77l16.39-.85v-5.95C1426.64,1636.55,1426.59,1634.22,1426.47,1631.92Zm67.29,23.79q-0.765-5.73-1.1-11.51c-0.06-1.13-.13-2.28-0.21-3.44s-0.19-2.31-.3-3.44c-0.12-2.44-.21-4.87-0.3-7.31s-0.13-4.87-.13-7.31a43.706,43.706,0,0,0-8.07-.76c-1.7,0-3.4.04-5.1,0.13s-3.39.15-5.09,0.21q0.585,6.285.8,12.49t0.56,12.57a40.249,40.249,0,0,1-4.42,1.15,23.068,23.068,0,0,1-4.59.47,16.392,16.392,0,0,1-3.87-.47,12.758,12.758,0,0,1-3.56-1.45,10.216,10.216,0,0,1-2.85-2.46,8.236,8.236,0,0,1-1.61-3.53,48.285,48.285,0,0,1-1.07-8.28q-0.21-4.455-.21-8.45-4.08-.255-8.2-0.6c-2.75-.22-5.48-0.48-8.2-0.76,0.12,3.74.24,7.42,0.39,11.04s0.35,7.31.63,11.05c0.06,0.62.12,1.39,0.17,2.29s0.13,1.83.22,2.76,0.19,1.84.34,2.72a21.452,21.452,0,0,0,.46,2.25,14.5,14.5,0,0,0,3.83,6.59,9.785,9.785,0,0,0,7.05,2.5q6.45,0,12.87-.55t12.79-1.15c0.11,1.14.29,2.43,0.55,3.87a23.318,23.318,0,0,1,.38,3.95,1.953,1.953,0,0,1-.42,1.28,4.87,4.87,0,0,1-1.02.89,5.26,5.26,0,0,1-1.32.59,11.9,11.9,0,0,1-1.23.3,21.171,21.171,0,0,1-2.76.38c-1.05.09-2.13,0.16-3.23,0.21s-2.18.09-3.23,0.09-2,.03-2.85.08q-5.865.435-11.68,0.73t-11.68.55q0.51,3.57.81,6.97c0.19,2.26.41,4.56,0.63,6.88q7.395,0,14.7-.05,7.3-.03,14.61-0.38c0.85,0,1.89-.03,3.11-0.08s2.44-.12,3.69-0.17,2.45-.14,3.61-0.26a30.2,30.2,0,0,0,3.02-.42,13.13,13.13,0,0,0,5.82-2.85,20.23,20.23,0,0,0,4.37-5.1,24.578,24.578,0,0,0,2.72-6.28,24.093,24.093,0,0,0,.94-6.42A86.924,86.924,0,0,0,1493.76,1655.71Z" transform="translate(-1128 -1621.94)"/>
</svg>
