<svg xmlns="http://www.w3.org/2000/svg" width="495.848" height="71.031" viewBox="0 0 495.848 71.031">
  <defs>
    <style>
      .cls-1 {
        fill: #97b0e3;
        fill-rule: evenodd;
      }
    </style>
  </defs>
  <path id="Welcome_" data-name="Welcome!" class="cls-1" d="M778.489,918.384q-1.7,9.346-3.271,18.691t-3.695,18.606q-4.079-9.854-7.562-19.753t-6.287-20.178h-4.163q-1.36,4.588-2.8,9.048t-2.974,9.048q-1.784,5.1-3.27,10.2t-2.932,10.28q-0.849-7.392-1.7-14.656T738.3,925.01q-0.255-2.718-.51-5.522t-0.6-5.608H712.56q2.463,9.432,4.8,18.734t4.545,18.819q1.7,7.647,3.441,15.123t3.7,15.124l13.849,0.339q1.953-3.482,3.993-6.882t4.248-6.712q1.7-2.718,3.186-5.437a56.976,56.976,0,0,0,2.676-5.607q2.633,5.862,5.608,11.427t5.692,11.257a29.008,29.008,0,0,0,4.376.51q2.166,0.085,4.375.085H779c0.68,0,1.33-.028,1.954-0.085q3.569-15.632,6.2-30.628t4.418-30.884Zm69.244-.425q-5.184-.255-10.323-0.468t-10.323-.212q-6.8,0-13.466.042t-13.382-.042q0.169,5.862.34,11.6t0.17,11.512V942q0,10.026-.34,19.881t-0.594,19.8q12.063,0,23.959-.128t23.959-.042a67.138,67.138,0,0,1-1.7-8.369q-0.6-4.29-1.189-8.539-6.543.6-12.957,1.4t-12.871,1.232L817.741,956.7l20.391-3.654q0-1.188.042-2.463t0.043-2.464q0-2.887-.213-5.692t-0.637-5.693l-21.92,1.275,0.17-6.712q8.327-.679,16.525-1.147t16.525-.893Zm48.342,45.029q-5.523-.17-11-0.17t-11.087-.17q0.168-5.352.382-10.662t0.552-10.663q0.424-6.372,1.232-12.7t1.742-12.616q-5.609.424-11.13,0.679t-11.215.34q0.679,16.313.934,32.328t0.68,32.242q10.11-.6,20.093-1.274t20.094-1.444Zm54.2-.552q-4.758.807-9.643,1.529t-9.643,1.147q-4.758.426-8.921,0.425c-0.227,0-.666-0.013-1.317-0.042a3.132,3.132,0,0,1-1.4-.3,5.114,5.114,0,0,1-.807-2.464q-0.382-2.122-.638-4.715t-0.424-4.885q-0.173-2.3-.17-3.059t0.042-2.039q0.042-1.275.17-2.634t0.34-2.591a7.084,7.084,0,0,1,.552-1.912,4.026,4.026,0,0,1,1.827-1.444,18.925,18.925,0,0,1,3.271-1.19,37.387,37.387,0,0,1,4.035-.849q2.168-.339,4.206-0.553t3.653-.34q1.614-.126,2.464-0.127a54.375,54.375,0,0,1,8.241.638,39.354,39.354,0,0,1,7.987,2.081q-0.255-5.607-.255-11.13,0-2.293.085-4.631t0.255-4.63a55.33,55.33,0,0,0-9.431-1.911,85.465,85.465,0,0,0-9.686-.553q-2.548,0-5.565.213t-6.074.68a43.807,43.807,0,0,0-5.9,1.316,25.669,25.669,0,0,0-5.14,2.125,6.752,6.752,0,0,0-1.869,1.614q-0.936,1.1-1.53,1.869a30.717,30.717,0,0,0-3.441,6.117,43.379,43.379,0,0,0-2.251,6.882,56.5,56.5,0,0,0-1.232,7.222,67.775,67.775,0,0,0-.382,7.052,55.336,55.336,0,0,0,.3,5.692,42.491,42.491,0,0,0,.977,5.692,30.75,30.75,0,0,0,1.869,5.438,22.226,22.226,0,0,0,2.974,4.843,16.494,16.494,0,0,0,1.529,1.656,11.648,11.648,0,0,0,1.784,1.4,10.176,10.176,0,0,0,3.229.977q2.208,0.382,4.673.637t4.758,0.34q2.293,0.086,3.483.085a78.447,78.447,0,0,0,8.156-.425q4.078-.423,8.156-0.935,3.908-.508,7.732-1.189t7.731-1.444l0.085-13.254Q955.039,961.628,950.28,962.436Zm87.34-20.688q-0.09-1.869-.21-4.121c-0.09-1.5-.2-3.071-0.34-4.715s-0.3-3.2-.47-4.673a38.492,38.492,0,0,0-.64-3.951,14.04,14.04,0,0,0-.8-2.676,4.916,4.916,0,0,0-2.55-2.039,31.363,31.363,0,0,0-4.89-1.7q-2.85-.765-6.16-1.317t-6.54-.935q-3.225-.381-5.99-0.552c-1.84-.113-3.3-0.17-4.37-0.17-0.8,0-2.04.03-3.74,0.085s-3.6.157-5.695,0.3-4.305.312-6.627,0.51-4.5.425-6.542,0.68-3.823.552-5.353,0.892a9.635,9.635,0,0,0-3.143,1.1,5.949,5.949,0,0,0-1.869,2.676,35.051,35.051,0,0,0-1.572,4.716q-0.723,2.721-1.317,5.863t-1.02,6.159q-0.426,3.017-.679,5.608t-0.255,4.205a54.912,54.912,0,0,0,.382,6.287q0.382,3.314,1.02,6.67t1.571,6.542q0.934,3.186,2.04,5.99,0.423,1.019.934,2.123a11.839,11.839,0,0,0,1.19,2.039,5.046,5.046,0,0,0,2.931,1.4,50.271,50.271,0,0,0,5.522.935q3.186,0.382,6.84.6t7.009,0.3q3.355,0.085,5.993.127c1.75,0.029,3,.043,3.73.043q3.315,0,7.14.085a57.44,57.44,0,0,0,7.65-.34,33.315,33.315,0,0,0,7.35-1.657,15.856,15.856,0,0,0,6.07-3.78,5.578,5.578,0,0,0,.85-2.294q0.42-1.869.81-4.461,0.375-2.591.68-5.65t0.51-5.819c0.14-1.84.25-3.469,0.34-4.886s0.15-2.406.21-2.973q0.09-1.02.09-2.082v-2.167Q1037.71,943.619,1037.62,941.748Zm-15.17,8.793q-0.03,2.083-.21,4.333a39.958,39.958,0,0,1-.51,4.164,5.683,5.683,0,0,1-.85,2.506,6.122,6.122,0,0,1-3.01,1.317q-2.34.554-5.1,0.934c-1.84.255-3.6,0.439-5.27,0.552s-2.84.17-3.52,0.17c-0.4,0-1.1-.013-2.09-0.042s-2.12-.085-3.394-0.17-2.592-.183-3.951-0.3-2.648-.268-3.866-0.467-2.251-.41-3.1-0.637a2.631,2.631,0,0,1-1.529-.765,4.549,4.549,0,0,1-.637-1.869q-0.213-1.274-.383-2.719t-0.212-2.8q-0.043-1.359-.042-2.039,0-.765.085-2.507t0.3-3.653q0.212-1.911.51-3.569a4.991,4.991,0,0,1,.807-2.251,4.751,4.751,0,0,1,2.719-1.316q2.208-.552,4.8-0.935t4.928-.553q2.338-.168,3.269-0.169,1.185,0,4.08.042t5.99,0.3a40.291,40.291,0,0,1,5.69.85q2.595,0.6,3.27,1.614a7.265,7.265,0,0,1,1.11,3.356c0.11,1.274.17,2.479,0.17,3.611C1022.5,948.149,1022.48,949.154,1022.45,950.541Zm98.69,28.08-0.17-7.137c-0.12-3.964-.24-7.957-0.39-11.979s-0.29-8.043-.46-12.065q-0.345-7.647-.72-15.123t-0.64-15.123q-5.775.086-11.43,0.255t-11.43.34q-3.48,5.947-6.84,11.979a126.061,126.061,0,0,0-5.99,12.32q-2.46-6.627-4.63-13.3t-4.2-13.466q-6.12.6-11.94,0.934t-11.94.34q0.09,9.261.22,18.437t0.12,18.436q0,7.9-.42,15.718t-0.85,15.718c2.09-.17,4.18-0.34,6.24-0.51s4.18-.255,6.33-0.255c0.68,0,1.35.014,2,.043s1.29,0.042,1.91.042l-1.36-41.97q4.845,10.194,9.31,20.433t8.36,20.858l17.85-40.357q0.165,6.288.38,12.574t0.21,12.659q0,3.569-.04,7.01t-0.13,7.009q3.225-.341,6.54-0.467t6.63-.128q0.6,0,1.83.085c0.82,0.056,1.65.141,2.5,0.255q1.53,0.17,3.15.255v-3.823Zm59.64-60.662q-5.19-.255-10.32-0.468-5.145-.21-10.33-0.212-6.8,0-13.46.042t-13.38-.042q0.165,5.862.34,11.6t0.17,11.512V942q0,10.026-.34,19.881t-0.6,19.8q12.06,0,23.96-.128t23.96-.042a67.32,67.32,0,0,1-1.7-8.369c-0.4-2.86-.79-5.706-1.19-8.539q-6.54.6-12.96,1.4t-12.87,1.232l-1.27-10.535,20.39-3.654c0-.792.01-1.614,0.04-2.463s0.04-1.67.04-2.464q0-2.887-.21-5.692t-0.64-5.693l-21.92,1.275,0.17-6.712q8.325-.679,16.53-1.147t16.52-.893Zm7.82-.68q0.33,5.862.59,11.682t0.85,11.6l2.12,21.41,9.35-.849q1.275-6.372,2.59-12.574t2.59-12.574q0.435-2.209.72-4.8c0.2-1.727.36-3.5,0.47-5.31s0.21-3.6.3-5.353,0.15-3.369.21-4.842Zm18.22,56.287a2.252,2.252,0,0,0-.21-0.638,6.728,6.728,0,0,0-2.85-3.313,8.4,8.4,0,0,0-4.29-1.1,11.459,11.459,0,0,0-3.1.467,11.641,11.641,0,0,0-3.06,1.359,8.908,8.908,0,0,0-2.38,2.209,4.809,4.809,0,0,0-.97,2.931,5.143,5.143,0,0,0,.72,2.719,6.51,6.51,0,0,0,1.87,2,9.607,9.607,0,0,0,2.55,1.275,8.415,8.415,0,0,0,2.67.467,8.184,8.184,0,0,0,2.98-.637,11.326,11.326,0,0,0,2.97-1.742,10.464,10.464,0,0,0,2.25-2.506,5.2,5.2,0,0,0,.89-2.846A4.3,4.3,0,0,0,1206.82,973.566Z" transform="translate(-712.562 -913.875)"/>
</svg>
