<svg xmlns="http://www.w3.org/2000/svg" width="466.03" height="69.6" viewBox="0 0 466.03 69.6">
  <defs>
    <style>
      .cls-1 {
        fill: #97b0e3;
        fill-rule: evenodd;
      }
    </style>
  </defs>
  <path id="The_TEAM_copy_2" data-name="The TEAM copy 2" class="cls-1" d="M778.32,8936.54q-0.173-3.435-.51-7.09-12.661-.345-25.234-0.81t-25.318-.72q0.084,6.21.17,12.4,0.084,6.21.34,12.49,1.443,0.09,2.846.09h2.846q2.548,0,5.055-.09c1.67-.05,3.327-0.11,4.971-0.17q0.337,5.19.594,10.33c0.17,3.42.255,6.84,0.255,10.23s-0.042,6.82-.127,10.24-0.185,6.87-.3,10.32c0.68,0,1.373.02,2.082,0.05s1.43,0.04,2.166.04q3.058,0,6.118-.13t6.117-.3q0.425-5.85.722-11.76t0.3-11.85q0-4.845.17-9.69c0.113-3.23.283-6.48,0.51-9.77l16.4-.85v-5.95C778.489,8941.17,778.432,8938.84,778.32,8936.54Zm60.917,25.24q0.083-15.42-.34-30.97a53.379,53.379,0,0,0-6.585-.77q-3.272-.165-6.669-0.17h-2.337q-1.146,0-2.336.09l-0.85,27.53q-4.164.075-8.156,0.08t-8.071.09q-0.51-6.375-.765-12.71-0.255-6.315-.934-12.7H788.005q-0.086,7.65-.127,15.21t-0.213,15.29q-0.171,7.905-.425,15.64t-0.424,15.63q3.313,0,6.669.13t6.669,0.12c1.133,0,2.28-.01,3.441-0.04s2.308-.07,3.441-0.13q-0.426-4.665-.807-9.38c-0.255-3.15-.382-6.3-0.382-9.48v-1.57c0-.54.028-1.09,0.085-1.66l15.972-.76c0.113,3.68.2,7.34,0.255,10.96s0.141,7.28.255,10.96l16.907-.42Q839.15,8977.2,839.237,8961.78Zm60.152-31.82q-5.184-.255-10.323-0.47t-10.323-.21q-6.8,0-13.466.04t-13.381-.04c0.113,3.91.225,7.77,0.34,11.6s0.169,7.66.169,11.51V8954q0,10.035-.339,19.88t-0.6,19.8q12.063,0,23.959-.13t23.959-.04a67.045,67.045,0,0,1-1.7-8.37c-0.4-2.86-.794-5.7-1.19-8.54q-6.543.6-12.956,1.4t-12.872,1.24L869.4,8968.7l20.39-3.65c0-.79.014-1.62,0.043-2.47s0.042-1.67.042-2.46c0-1.92-.071-3.82-0.212-5.69s-0.355-3.77-.637-5.69l-21.92,1.27,0.17-6.71q8.325-.675,16.525-1.15t16.524-.89Zm92.182,6.58q-0.171-3.435-.509-7.09-12.662-.345-25.234-0.81t-25.318-.72q0.084,6.21.17,12.4,0.084,6.21.34,12.49,1.443,0.09,2.846.09h2.846q2.548,0,5.055-.09c1.67-.05,3.327-0.11,4.971-0.17q0.337,5.19.594,10.33c0.17,3.42.255,6.84,0.255,10.23s-0.042,6.82-.127,10.24-0.185,6.87-.3,10.32c0.68,0,1.373.02,2.082,0.05s1.43,0.04,2.166.04q3.058,0,6.118-.13t6.117-.3q0.423-5.85.722-11.76t0.3-11.85q0-4.845.17-9.69c0.113-3.23.283-6.48,0.51-9.77l16.4-.85v-5.95C991.741,8941.17,991.684,8938.84,991.571,8936.54Zm56.759-6.58q-5.19-.255-10.33-0.47c-3.42-.14-6.87-0.21-10.32-0.21q-6.8,0-13.47.04t-13.38-.04c0.12,3.91.23,7.77,0.34,11.6s0.17,7.66.17,11.51V8954q0,10.035-.34,19.88t-0.59,19.8q12.06,0,23.96-.13t23.96-.04a65.632,65.632,0,0,1-1.7-8.37c-0.4-2.86-.8-5.7-1.19-8.54-4.37.4-8.68,0.87-12.96,1.4s-8.57.95-12.87,1.24l-1.28-10.54,20.39-3.65c0-.79.02-1.62,0.05-2.47s0.04-1.67.04-2.46c0-1.92-.07-3.82-0.21-5.69s-0.36-3.77-.64-5.69l-21.92,1.27,0.17-6.71q8.325-.675,16.53-1.15,8.19-.465,16.52-0.89Zm61.38,49.11q-1.23-6.795-2.25-13.77-1.455-8.835-2.76-17.63-1.32-8.79-2.68-17.63-7.56-.255-15.12-0.25a111.071,111.071,0,0,0-12.28.68q-6.075.675-12.19,1.7-1.185,14.355-2.46,28.63t-2.47,28.72h13.09l2.63-11.3,20.9-.77q1.275,4.335,2.63,8.63t2.72,8.62l12.92-1.95Q1110.935,8985.865,1109.71,8979.07Zm-34.88-12.75a7.671,7.671,0,0,0,.3-1.27c0.14-.74.33-1.62,0.55-2.64s0.47-2.09.72-3.22,0.51-2.2.77-3.19,0.47-1.83.64-2.51a2.431,2.431,0,0,1,.42-1.1,2.2,2.2,0,0,1,.98-0.43,9.106,9.106,0,0,1,1.53-.21c0.54-.03,1.05-0.04,1.53-0.04h2.08a13.6,13.6,0,0,1,1.4.08c0.48,0.06.94,0.12,1.36,0.17a4.1,4.1,0,0,1,.81.17,4.638,4.638,0,0,1,1.06,2.26c0.37,1.27.69,2.69,0.98,4.24s0.53,3.03.76,4.42,0.37,2.34.43,2.85Zm118.44,24.3-0.17-7.14q-0.18-5.94-.38-11.98-0.225-6.03-.47-12.06-0.345-7.65-.72-15.12-0.39-7.485-.64-15.13-5.775.09-11.43,0.26c-3.76.11-7.57,0.23-11.42,0.34q-3.495,5.94-6.84,11.98a121.558,121.558,0,0,0-5.99,12.32q-2.475-6.63-4.63-13.3-2.175-6.66-4.21-13.46-6.12.585-11.94,0.93t-11.93.34q0.075,9.255.21,18.44,0.12,9.165.13,18.43,0,7.905-.43,15.72t-0.85,15.72q3.15-.255,6.25-0.51t6.33-.26c0.68,0,1.34.02,1.99,0.05s1.29,0.04,1.91.04l-1.36-41.97q4.845,10.185,9.31,20.43t8.37,20.86l17.84-40.36q0.165,6.285.38,12.58t0.21,12.66q0,3.555-.04,7.01c-0.03,2.29-.07,4.63-0.13,7,2.16-.22,4.34-0.38,6.55-0.46s4.41-.13,6.62-0.13c0.4,0,1.01.03,1.83,0.08s1.66,0.15,2.51.26c1.01,0.11,2.06.2,3.14,0.25v-3.82Z" transform="translate(-727.25 -8927.31)"/>
</svg>
