<svg xmlns="http://www.w3.org/2000/svg" width="1087.159" height="70.19" viewBox="0 0 1087.159 70.19">
  <defs>
    <style>
      .cls-1 {
        fill: #97b0e3;
        fill-rule: evenodd;
      }
    </style>
  </defs>
  <path id="Get_your_Penguins" data-name="Get your Penguins" class="cls-1" d="M472.943,2731q-0.085-7.14-.679-14.36c-3.908,0-7.831.02-11.767,0.04s-7.859-.09-11.767-0.38l0.764,16.4H434.456a26.3,26.3,0,0,1-1.274-4.16q-0.6-2.55-1.02-5.36-0.426-2.79-.722-5.48a42.354,42.354,0,0,1-.3-4.63q0-.93.085-2.37c0.055-.97.155-1.94,0.3-2.94a21.6,21.6,0,0,1,.6-2.84,7.585,7.585,0,0,1,.892-2.13,6.838,6.838,0,0,1,3.568-2.42,32.893,32.893,0,0,1,5.48-1.36q2.931-.465,5.735-0.63c1.869-.12,3.369-0.17,4.5-0.17a59.616,59.616,0,0,1,17.927,2.71l-0.68-18.18a94.155,94.155,0,0,0-18.182-1.78q-4.25,0-9.3.47a47.422,47.422,0,0,0-9.813,1.95,33,33,0,0,0-8.708,4.16,17.021,17.021,0,0,0-5.99,7.1,11.693,11.693,0,0,0-.68,2.55c-0.17,1.02-.3,2.09-0.382,3.22s-0.142,2.23-.17,3.28-0.042,1.94-.042,2.67q0,6.03.424,12.02t1.19,11.94c0.17,1.53.368,2.9,0.595,4.12a12.062,12.062,0,0,0,1.1,3.32,8.367,8.367,0,0,0,2.166,2.63,13.965,13.965,0,0,0,3.866,2.08,10.577,10.577,0,0,0,2.677.55q1.485,0.135,2.676.3,10.278,1.185,21.028,1.53t21.027,0.51Q473.028,2738.145,472.943,2731Zm58.878-50.04q-5.183-.255-10.322-0.47t-10.323-.21q-6.8,0-13.466.04t-13.382-.04c0.113,3.91.226,7.77,0.34,11.6s0.17,7.66.17,11.51V2705q0,10.035-.34,19.88t-0.595,19.8q12.065,0,23.959-.13t23.959-.04a67.408,67.408,0,0,1-1.7-8.37c-0.4-2.86-.794-5.7-1.189-8.54q-6.543.6-12.957,1.4t-12.871,1.24l-1.275-10.54,20.391-3.65c0-.79.013-1.62,0.042-2.47s0.043-1.67.043-2.46c0-1.92-.072-3.82-0.213-5.69s-0.354-3.77-.637-5.69l-21.92,1.27,0.17-6.71q8.327-.675,16.525-1.15t16.525-.89ZM589,2687.54c-0.114-2.29-.284-4.66-0.51-7.09q-12.66-.345-25.233-0.81t-25.318-.72q0.083,6.2.17,12.4t0.339,12.49q1.444,0.09,2.847.09h2.846q2.549,0,5.055-.09c1.67-.05,3.327-0.11,4.97-0.17q0.339,5.19.595,10.33c0.17,3.42.255,6.84,0.255,10.23s-0.043,6.82-.128,10.24-0.184,6.87-.3,10.32c0.68,0,1.373.02,2.082,0.05s1.429,0.04,2.166.04q3.058,0,6.117-.13t6.117-.3c0.283-3.9.523-7.83,0.723-11.76s0.3-7.89.3-11.85q0-4.845.17-9.69t0.51-9.77l16.4-.85v-5.95C589.17,2692.17,589.113,2689.84,589,2687.54Zm102.293,23.79q-0.765-5.73-1.1-11.51c-0.057-1.13-.128-2.28-0.213-3.44s-0.184-2.31-.3-3.44c-0.114-2.44-.213-4.87-0.3-7.31s-0.127-4.87-.127-7.3a42.876,42.876,0,0,0-8.071-.77c-1.7,0-3.4.04-5.1,0.13s-3.4.15-5.1,0.21q0.594,6.285.808,12.49c0.14,4.13.325,8.33,0.552,12.57a40.1,40.1,0,0,1-4.418,1.15,23.049,23.049,0,0,1-4.588.47,16.3,16.3,0,0,1-3.866-.47,13.094,13.094,0,0,1-3.568-1.44,10.334,10.334,0,0,1-2.846-2.47,8.192,8.192,0,0,1-1.615-3.52,48.931,48.931,0,0,1-1.062-8.29q-0.213-4.455-.212-8.45-4.079-.255-8.2-0.6c-2.748-.22-5.48-0.48-8.2-0.76q0.168,5.61.382,11.04,0.212,5.445.637,11.05c0.056,0.62.113,1.39,0.17,2.29s0.127,1.83.212,2.76,0.2,1.85.34,2.72a22.329,22.329,0,0,0,.468,2.26,14.458,14.458,0,0,0,3.823,6.58,9.81,9.81,0,0,0,7.052,2.51q6.454,0,12.871-.56c4.276-.36,8.539-0.75,12.787-1.14,0.113,1.13.3,2.42,0.552,3.86a22.922,22.922,0,0,1,.382,3.95,1.94,1.94,0,0,1-.425,1.28,4.579,4.579,0,0,1-1.019.89,5.176,5.176,0,0,1-1.317.59,8.367,8.367,0,0,1-1.232.3,20.876,20.876,0,0,1-2.761.38c-1.049.09-2.124,0.16-3.229,0.22s-2.181.08-3.228,0.08-2,.03-2.846.09q-5.863.42-11.682,0.72t-11.683.55q0.51,3.57.808,6.97c0.2,2.26.41,4.56,0.637,6.88q7.392,0,14.7-.04t14.613-.39c0.85,0,1.883-.02,3.1-0.08s2.45-.11,3.7-0.17,2.449-.14,3.611-0.26a30.062,30.062,0,0,0,3.016-.42,13.11,13.11,0,0,0,5.82-2.85,20.419,20.419,0,0,0,4.375-5.09,24.938,24.938,0,0,0,2.719-6.29,23.958,23.958,0,0,0,.935-6.42A87.032,87.032,0,0,0,691.293,2711.33Zm82.327-6.58c-0.057-1.25-.127-2.62-0.212-4.12s-0.2-3.07-.34-4.72-0.3-3.2-.467-4.67-0.383-2.79-.637-3.95a14.3,14.3,0,0,0-.808-2.68,4.964,4.964,0,0,0-2.548-2.04,31.725,31.725,0,0,0-4.886-1.7c-1.9-.51-3.95-0.94-6.159-1.31s-4.39-.68-6.542-0.94-4.15-.44-5.99-0.55-3.3-.17-4.376-0.17c-0.793,0-2.039.03-3.738,0.08s-3.6.16-5.692,0.3-4.305.31-6.627,0.51-4.5.43-6.542,0.68-3.823.55-5.353,0.89a9.492,9.492,0,0,0-3.143,1.11,5.9,5.9,0,0,0-1.869,2.67,35.607,35.607,0,0,0-1.572,4.72c-0.482,1.81-.921,3.77-1.317,5.86s-0.737,4.15-1.02,6.16-0.509,3.88-.679,5.61-0.255,3.13-.255,4.21a54.847,54.847,0,0,0,.382,6.28q0.382,3.315,1.02,6.67t1.571,6.54c0.623,2.13,1.3,4.12,2.039,5.99q0.424,1.02.935,2.13a12.512,12.512,0,0,0,1.189,2.04,5.11,5.11,0,0,0,2.932,1.4,48.972,48.972,0,0,0,5.522.93q3.186,0.39,6.839.6t7.01,0.29q3.355,0.09,5.99.13c1.755,0.03,3,.04,3.738.04q3.314,0,7.137.09a57.556,57.556,0,0,0,7.646-.34,33.279,33.279,0,0,0,7.349-1.66,15.843,15.843,0,0,0,6.075-3.78,5.591,5.591,0,0,0,.849-2.29c0.283-1.25.553-2.73,0.808-4.46s0.48-3.61.679-5.65,0.368-3.98.51-5.82,0.255-3.47.34-4.89,0.155-2.4.212-2.97c0.056-.68.085-1.37,0.085-2.08v-2.17C773.705,2706.99,773.676,2705.99,773.62,2704.75Zm-15.165,8.79c-0.03,1.39-.1,2.83-0.213,4.33s-0.284,2.89-.509,4.17a5.731,5.731,0,0,1-.85,2.5,6.151,6.151,0,0,1-3.016,1.32q-2.338.555-5.1,0.94c-1.841.25-3.6,0.43-5.267,0.55s-2.847.17-3.526,0.17c-0.4,0-1.092-.02-2.082-0.05s-2.124-.08-3.4-0.17-2.592-.18-3.951-0.29-2.648-.27-3.866-0.47-2.251-.41-3.1-0.64a2.628,2.628,0,0,1-1.529-.76,4.6,4.6,0,0,1-.637-1.87c-0.142-.85-0.27-1.76-0.383-2.72s-0.184-1.9-.212-2.8-0.042-1.59-.042-2.04c0-.51.027-1.35,0.085-2.51s0.155-2.38.3-3.65,0.31-2.47.51-3.57a5.021,5.021,0,0,1,.807-2.25,4.755,4.755,0,0,1,2.719-1.32,47.774,47.774,0,0,1,4.8-.93c1.727-.26,3.369-0.44,4.928-0.56s2.647-.17,3.271-0.17c0.792,0,2.151.02,4.078,0.05s3.921,0.12,5.989.29a41.273,41.273,0,0,1,5.693.85q2.591,0.6,3.271,1.62a7.259,7.259,0,0,1,1.1,3.35c0.113,1.28.17,2.48,0.17,3.61C758.5,2711.15,758.483,2712.15,758.455,2713.54Zm88.954-16.23q-0.978-9.3-2.761-18.39a25.972,25.972,0,0,1-4.121.51c-1.389.06-2.79,0.08-4.206,0.08-1.189,0-2.365-.01-3.525-0.04s-2.337-.1-3.526-0.21q0.17,3.99.255,7.86t0.085,7.86c0,1.3-.015,2.6-0.043,3.91s-0.042,2.6-.042,3.9v4.17q0,2.88-.255,6.03a53.116,53.116,0,0,1-.765,5.78c-0.34,1.75-.85,2.86-1.529,3.31a2.715,2.715,0,0,1-1.275.34c-0.624.06-1.289,0.1-2,.13s-1.4.04-2.082,0.04h-1.444c-0.34,0-.907-0.01-1.7-0.04s-1.7-.06-2.719-0.09-2.1-.07-3.229-0.13-2.2-.14-3.186-0.25-1.841-.24-2.549-0.38a2.936,2.936,0,0,1-1.316-.47,6.465,6.465,0,0,1-.977-2.89c-0.255-1.47-.468-3.08-0.638-4.84s-0.284-3.41-.339-4.97-0.085-2.65-.085-3.27q0-5.61.339-11.68t1.19-11.52l-17.5.43q-0.765,8.67-1.4,17.25t-0.637,17.33q0,4.5.212,8.96t0.637,8.96c0.283,0.23.778,0.64,1.487,1.24s1.557,1.27,2.549,2.03,2.025,1.56,3.1,2.38,2.11,1.59,3.1,2.3,1.883,1.3,2.676,1.78a6.1,6.1,0,0,0,1.7.81,16.007,16.007,0,0,0,3.993.38c1.472-.03,2.774-0.04,3.908-0.04q3.738,0,7.307-.09c2.379-.05,4.757-0.14,7.136-0.25,0.963,0,2.152.01,3.569,0.04a12.444,12.444,0,0,0,3.4-.3,12.731,12.731,0,0,0,2.931-.97,30.1,30.1,0,0,0,3.1-1.66c1.02-.62,2-1.26,2.932-1.91s1.8-1.23,2.591-1.74c0.962-.68,1.9-1.32,2.8-1.91s1.812-1.24,2.718-1.92q0.68-4.83.892-9.6t0.213-9.6A178.939,178.939,0,0,0,847.409,2697.31Zm72.132-5.69a18.29,18.29,0,0,0-6.67-7.26,17.058,17.058,0,0,0-4.035-1.79,36.469,36.469,0,0,0-4.673-1.06,41.7,41.7,0,0,0-4.8-.47c-1.586-.05-3.058-0.08-4.418-0.08q-7.986,0-15.93.51t-15.93.93q-0.51,13.77-.764,27.53c-0.058,5.16-.255,10.32-0.6,15.51s-0.709,10.38-1.105,15.59c1.585,0.17,3.157.28,4.716,0.34s3.156,0.08,4.8.08q4.842,0,9.685-.25l-0.424-19.29c1.812-.11,3.638-0.26,5.48-0.43s3.7-.31,5.565-0.42a93.063,93.063,0,0,1,3.823,12.15,97.329,97.329,0,0,1,2.039,12.66l24.808-.6a236.887,236.887,0,0,0-14.7-28.71q6.966-.345,11.215-4.34t4.248-10.96A20.823,20.823,0,0,0,919.541,2691.62Zm-17.417,9.73c-0.03.68-.057,1.37-0.085,2.08a15.806,15.806,0,0,1-.213,2.04,3.428,3.428,0,0,1-.424,1.32,4.139,4.139,0,0,1-2.082,1.23,21.05,21.05,0,0,1-3.229.72c-1.161.17-2.293,0.29-3.4,0.34s-1.941.09-2.506,0.09c-1.3,0-2.634-.06-3.993-0.17a28.135,28.135,0,0,1-3.909-.6l-2.294-16.48q3.228-.51,6.5-0.85a63.538,63.538,0,0,1,6.669-.34c0.283,0,.778.01,1.487,0.04s1.444,0.09,2.209.17,1.487,0.19,2.167.3a3.158,3.158,0,0,1,1.444.51,3.361,3.361,0,0,1,.935,1.57,13.888,13.888,0,0,1,.509,2.29c0.113,0.83.183,1.63,0.213,2.43s0.042,1.41.042,1.87Q902.166,2700.33,902.124,2701.35Zm126.766-3.48q-0.135-2.385-.39-4.89a44.877,44.877,0,0,0-.72-4.71,6.774,6.774,0,0,0-1.15-2.98,8.93,8.93,0,0,0-4.12-2.12,57.444,57.444,0,0,0-6.75-1.57q-3.66-.645-6.97-0.94c-2.21-.2-3.82-0.3-4.84-0.3a175.518,175.518,0,0,0-17.715.9q-8.878.885-17.629,1.48,0.168,7.23.382,14.36t0.467,14.36q0.339,7.98.34,15.8v15.81c1.132-.12,2.265-0.2,3.4-0.26s2.264-.08,3.4-0.08q2.633,0,5.183.12a44.892,44.892,0,0,0,5.182-.04l0.68-17.67c0.51,0,1.727-.09,3.653-0.26s4.206-.38,6.84-0.63,5.42-.56,8.37-0.9,5.7-.69,8.28-1.06,4.79-.73,6.63-1.1,2.93-.75,3.27-1.15a10.443,10.443,0,0,0,2.12-3.74,29.707,29.707,0,0,0,1.32-5.1q0.465-2.715.68-5.35t0.21-4.5Q1029.01,2700.24,1028.89,2697.87Zm-23.96,7.01a5.867,5.867,0,0,1-1.83,3.52,7.232,7.232,0,0,1-3.569,1.49,53.085,53.085,0,0,1-5.607.85q-2.974.3-5.692,0.42c-1.814.09-3.088,0.13-3.824,0.13q-0.255-4.08-.255-8.07c0-1.64-.014-3.29-0.042-4.93s-0.128-3.31-.3-5.01q3.227-.51,6.372-0.85a57.552,57.552,0,0,1,6.287-.34c0.283,0,.735.01,1.359,0.04s1.275,0.07,1.954.13,1.334,0.14,1.954.25a4.426,4.426,0,0,1,1.36.43,2.968,2.968,0,0,1,1.1,1.4,9.349,9.349,0,0,1,.64,2.12,22.669,22.669,0,0,1,.3,2.34c0.05,0.79.08,1.44,0.08,1.95A30.517,30.517,0,0,1,1004.93,2704.88Zm81.09-23.92q-5.175-.255-10.32-0.47t-10.32-.21c-4.54,0-9.02.01-13.47,0.04s-8.91.02-13.38-.04c0.11,3.91.22,7.77,0.34,11.6s0.17,7.66.17,11.51V2705q0,10.035-.34,19.88t-0.6,19.8q12.075,0,23.96-.13t23.96-.04a67.41,67.41,0,0,1-1.7-8.37c-0.39-2.86-.79-5.7-1.19-8.54q-6.54.6-12.95,1.4t-12.88,1.24l-1.27-10.54,20.39-3.65c0-.79.01-1.62,0.04-2.47s0.05-1.67.05-2.46c0-1.92-.08-3.82-0.22-5.69s-0.35-3.77-.63-5.69l-21.92,1.27,0.17-6.71q8.325-.675,16.52-1.15c5.47-.31,10.97-0.61,16.53-0.89Zm74.68,18.1q-0.255-8.76-.59-17.59l-17.16-2.04q0.165,10.71.46,21.24t0.39,21.15q-2.475-6.615-4.93-13.21-2.475-6.585-4.42-13.29-1.365-4.425-2.85-8.71t-3.18-8.54l-33.22.17q0.84,16.305,1.19,32.46,0.33,16.14.76,32.45l18.35,0.51q0.51-11.475,1.32-22.81t1.57-22.81q2.13,5.265,4.25,10.45c1.41,3.45,2.92,6.91,4.5,10.36q3.225,7.05,6.46,13.98t6.46,13.97c1.7-.28,3.41-0.51,5.14-0.68s3.44-.25,5.14-0.25q5.175,0,10.45.25c0.05-4.98.1-9.89,0.12-14.74s0.05-9.75.05-14.74Q1160.96,2707.805,1160.7,2699.06Zm68.65,31.94q-0.09-7.14-.68-14.36c-3.91,0-7.83.02-11.77,0.04s-7.85-.09-11.76-0.38l0.76,16.4h-15.04a26.235,26.235,0,0,1-1.27-4.16q-0.6-2.55-1.02-5.36-0.42-2.79-.72-5.48a42.186,42.186,0,0,1-.3-4.63c0-.62.03-1.41,0.08-2.37s0.16-1.94.3-2.94a20.669,20.669,0,0,1,.6-2.84,7.444,7.444,0,0,1,.89-2.13,6.841,6.841,0,0,1,3.57-2.42,32.771,32.771,0,0,1,5.48-1.36q2.925-.465,5.73-0.63c1.87-.12,3.37-0.17,4.51-0.17a59.594,59.594,0,0,1,17.92,2.71l-0.68-18.18a94.135,94.135,0,0,0-18.18-1.78q-4.245,0-9.3.47a47.592,47.592,0,0,0-9.82,1.95,32.953,32.953,0,0,0-8.7,4.16,16.985,16.985,0,0,0-5.99,7.1,11.363,11.363,0,0,0-.68,2.55c-0.17,1.02-.3,2.09-0.39,3.22s-0.14,2.23-.17,3.28-0.04,1.94-.04,2.67q0,6.03.43,12.02t1.19,11.94c0.17,1.53.36,2.9,0.59,4.12a12.237,12.237,0,0,0,1.11,3.32,8.4,8.4,0,0,0,2.16,2.63,13.965,13.965,0,0,0,3.87,2.08,10.511,10.511,0,0,0,2.67.55c0.99,0.09,1.89.19,2.68,0.3q10.275,1.185,21.03,1.53,10.74,0.345,21.03.51Q1229.44,2738.145,1229.35,2731Zm73.45-33.69q-0.975-9.3-2.76-18.39a26.061,26.061,0,0,1-4.12.51c-1.39.06-2.79,0.08-4.21,0.08-1.19,0-2.36-.01-3.52-0.04s-2.34-.1-3.53-0.21q0.165,3.99.26,7.86,0.075,3.87.08,7.86c0,1.3-.01,2.6-0.04,3.91s-0.04,2.6-.04,3.9v4.17q0,2.88-.26,6.03a53.17,53.17,0,0,1-.76,5.78c-0.34,1.75-.85,2.86-1.53,3.31a2.764,2.764,0,0,1-1.28.34c-0.62.06-1.29,0.1-1.99,0.13s-1.41.04-2.09,0.04h-1.44c-0.34,0-.91-0.01-1.7-0.04s-1.7-.06-2.72-0.09-2.09-.07-3.23-0.13-2.19-.14-3.18-0.25-1.84-.24-2.55-0.38a2.948,2.948,0,0,1-1.32-.47,6.5,6.5,0,0,1-.98-2.89c-0.25-1.47-.46-3.08-0.63-4.84s-0.29-3.41-.34-4.97-0.09-2.65-.09-3.27q0-5.61.34-11.68t1.19-11.52l-17.5.43q-0.765,8.67-1.4,17.25t-0.64,17.33q0,4.5.21,8.96c0.14,2.97.36,5.96,0.64,8.96,0.28,0.23.78,0.64,1.49,1.24s1.55,1.27,2.55,2.03,2.02,1.56,3.1,2.38,2.11,1.59,3.1,2.3,1.88,1.3,2.67,1.78a6.191,6.191,0,0,0,1.7.81,16.04,16.04,0,0,0,4,.38c1.47-.03,2.77-0.04,3.9-0.04,2.5,0,4.93-.03,7.31-0.09s4.76-.14,7.14-0.25c0.96,0,2.15.01,3.57,0.04a12.364,12.364,0,0,0,3.39-.3,12.76,12.76,0,0,0,2.94-.97,31.046,31.046,0,0,0,3.1-1.66c1.02-.62,1.99-1.26,2.93-1.91s1.8-1.23,2.59-1.74c0.96-.68,1.9-1.32,2.8-1.91s1.82-1.24,2.72-1.92q0.675-4.83.89-9.6c0.14-3.17.22-6.37,0.22-9.6A178.943,178.943,0,0,0,1302.8,2697.31Zm27.7-14.52q-9.135.465-18.4,0.8,0.18,3.57.3,7.1c0.09,2.35.18,4.71,0.3,7.09l8.07,1.02q0.585,7.9,1.15,15.72,0.54,7.815.97,15.8l-5.52.09c0.17,2.77.28,5.51,0.34,8.19q0.09,4.05.09,8.2l30.5-.51a28.518,28.518,0,0,1-.56-4.16c-0.08-1.41-.12-2.83-0.12-4.25v-5.1c0-1.69.05-3.36,0.17-5.01l-8.67-.17c-0.06-2.38-.1-4.71-0.13-7.01s-0.04-4.63-.04-7.01c0-1.98.01-3.93,0.04-5.86s0.07-3.88.13-5.86l9.43,0.34q0.165-5.1.09-10.24a101.853,101.853,0,0,1,.34-10.32Q1339.62,2682.315,1330.5,2682.79Zm95.71,16.27q-0.255-8.76-.6-17.59l-17.16-2.04q0.165,10.71.47,21.24,0.285,10.53.38,21.15-2.475-6.615-4.93-13.21t-4.42-13.29q-1.35-4.425-2.84-8.71t-3.19-8.54l-33.22.17q0.855,16.305,1.19,32.46t0.76,32.45l18.36,0.51q0.51-11.475,1.31-22.81t1.57-22.81q2.13,5.265,4.25,10.45t4.51,10.36q3.225,7.05,6.45,13.98t6.46,13.97c1.7-.28,3.41-0.51,5.14-0.68s3.44-.25,5.14-0.25c3.45,0,6.94.08,10.45,0.25q0.09-7.47.13-14.74t0.04-14.74Q1426.46,2707.805,1426.21,2699.06Zm76.33,24.76a23.324,23.324,0,0,0-2.42-5.1,19.2,19.2,0,0,0-3.61-4.24,13.558,13.558,0,0,0-4.55-2.68,50.81,50.81,0,0,0-6.37-1.49c-2.43-.42-4.97-0.78-7.6-1.06s-5.21-.54-7.73-0.76l-6.59-.6c-0.22,0-.83-0.05-1.82-0.17s-2.04-.22-3.15-0.34-2.11-.22-3.01-0.34a6.9,6.9,0,0,1-1.45-.25,2.128,2.128,0,0,1-.38-1.19c-0.03-.51-0.04-0.94-0.04-1.28,0-.68.03-1.34,0.08-1.99a6.081,6.081,0,0,1,.51-1.92c1.59-.11,2.92-0.21,4-0.29s2.19-.16,3.35-0.21,2.08-.09,2.76-0.09q8.16-.345,16.19-0.47t16.1-.29c-0.17-1.65-.34-3.3-0.51-4.97a49.16,49.16,0,0,1-.26-4.98c0-1.64.02-3.27,0.05-4.88s0.07-3.24.12-4.89q-6.12-1.185-12.23-1.95a99.882,99.882,0,0,0-12.41-.76,85.82,85.82,0,0,0-11.17.76,47.98,47.98,0,0,0-10.92,2.72,16.675,16.675,0,0,0-5.01,3.02,15.79,15.79,0,0,0-3.35,4.2,18.782,18.782,0,0,0-1.92,5.14,28.01,28.01,0,0,0-.59,5.82,34.571,34.571,0,0,0,.38,4.59,30.353,30.353,0,0,0,1.28,5.39,17.4,17.4,0,0,0,2.38,4.76,6.6,6.6,0,0,0,3.61,2.68,24.6,24.6,0,0,0,4.8.93c1.72,0.17,3.41.34,5.05,0.51,3.63,0.29,7.24.48,10.83,0.6s7.21,0.31,10.84.59c0.05,0,.25.02,0.59,0.04s0.71,0.06,1.11.09a9.6,9.6,0,0,1,1.06.13,1.219,1.219,0,0,1,.55.17,6.649,6.649,0,0,1,.76,2.16,12.222,12.222,0,0,1,.26,2.25,8.264,8.264,0,0,1-.09,1.15,1.588,1.588,0,0,1-.42.98,2.815,2.815,0,0,1-1.23.51,14.555,14.555,0,0,1-1.74.25c-0.63.06-1.22,0.09-1.79,0.09h-1.27c-1.7,0-3.39-.03-5.06-0.09s-3.33-.11-4.97-0.17q-6.375-.165-12.7-0.29t-12.7-.3a143.908,143.908,0,0,1,.51,17.16c3.57,0.23,7.09.4,10.58,0.51s7.01,0.17,10.57.17c2.1,0,4.7-.03,7.82-0.08s6.29-.19,9.52-0.39,6.34-.53,9.34-1.02a32.236,32.236,0,0,0,7.48-1.99,13.6,13.6,0,0,0,5.52-4.04,10.406,10.406,0,0,0,1.95-6.58A16.373,16.373,0,0,0,1502.54,2723.82Z" transform="translate(-416.281 -2676.62)"/>
</svg>
