<svg width="20" height="20" viewBox="0 0 20 20" fill="none" xmlns="http://www.w3.org/2000/svg"><path d="M14.534 11.293c-.034-.034-.086-.034-.137-.017l-.121.052a4.244 4.244 0 0 1-1.897.43c-.034 0-.051.018-.051.035a.666.666 0 0 1-.656.535h-1.344v-1.121h.017c.086.017.155.017.241.034.57.087.845.345.966.466l.017.017a.052.052 0 0 0 .069 0c.017-.017.034-.034.069-.052.207-.138.69-.43.69-1.982 0-1.587-1.207-2.656-1.345-2.724l-.707-.052h-.017v-.448a.508.508 0 0 0 .241-.432c0-.275-.207-.5-.483-.5a.486.486 0 0 0-.483.5c0 .173.087.328.242.414v.38l-1.017-.104c-.052 0-.087.052-.052.086.172.276.638 1.138.672 2.431.035 1.207-.155 1.776-.241 1.983-.017.017-.017.035 0 .052.017.017.034.017.052.017.12-.017.327-.052.586-.069v1.12h-1.12a.685.685 0 0 1-.673-.672v-.275c0-.035-.018-.052-.052-.052H5.914c-.017 0-.052.017-.052.052v.155c0 .776.224 1.482.604 2.103.068.104.19.155.293.104l.224-.104a.658.658 0 0 1 .569 0l.241.104c.173.086.38.086.57 0l.24-.104a.658.658 0 0 1 .57 0l.24.104c.19.086.38.086.57 0l.241-.104a.658.658 0 0 1 .57 0l.24.104c.19.086.38.086.57 0l.24-.104a.658.658 0 0 1 .57 0l.241.104c.155.069.328-.018.414-.173.138-.224.259-.483.345-.724.19-.569.534-1.103 1.069-1.362.051-.017.069-.069.069-.12.034-.018.017-.07-.018-.087Zm-7.69-.38H8.81c.035 0 .052-.016.052-.05v-2.14c0-.017-.017-.034-.034-.052l-.966-.448c-.017-.017-.052 0-.069.035l-1 2.569c-.017.051.017.086.052.086ZM10 0C4.483 0 0 4.483 0 10s4.483 10 10 10 10-4.483 10-10S15.517 0 10 0Zm-.034 17.276a7.207 7.207 0 0 1-7.207-7.224c0-3.983 3.224-7.224 7.207-7.224 3.982 0 7.206 3.241 7.206 7.224-.017 4-3.241 7.224-7.206 7.224Zm4.43-6-.12.052a4.244 4.244 0 0 1-1.897.43c-.034 0-.051.018-.051.035a.666.666 0 0 1-.656.535h-1.344v-1.121h.017c.086.017.155.017.241.034.57.087.845.345.966.466l.017.017a.052.052 0 0 0 .069 0c.017-.017.034-.034.069-.052.207-.138.69-.43.69-1.982 0-1.587-1.207-2.656-1.345-2.724l-.707-.052h-.017v-.448a.508.508 0 0 0 .241-.432c0-.275-.207-.5-.483-.5a.486.486 0 0 0-.483.5c0 .173.087.328.242.414v.38l-1.017-.104c-.052 0-.087.052-.052.086.172.276.638 1.138.672 2.431.035 1.207-.155 1.776-.241 1.983-.017.017-.017.035 0 .052.017.017.034.017.052.017.12-.017.327-.052.586-.069v1.12h-1.12a.685.685 0 0 1-.673-.672v-.275c0-.035-.018-.052-.052-.052H5.914c-.017 0-.052.017-.052.052v.155c0 .776.224 1.482.604 2.103.068.104.19.155.293.104l.224-.104a.658.658 0 0 1 .569 0l.241.104c.173.086.38.086.57 0l.24-.104a.658.658 0 0 1 .57 0l.24.104c.19.086.38.086.57 0l.241-.104a.658.658 0 0 1 .57 0l.24.104c.19.086.38.086.57 0l.24-.104a.658.658 0 0 1 .57 0l.241.104c.155.069.328-.018.414-.173.138-.224.259-.483.345-.724.19-.569.534-1.103 1.069-1.362.051-.017.069-.069.069-.12 0-.035-.018-.087-.052-.104 0 0-.052-.017-.103 0Zm-7.551-.362H8.81c.035 0 .052-.017.052-.052V8.724c0-.017-.017-.034-.034-.052l-.966-.448c-.017-.017-.052 0-.069.035l-1 2.569c-.017.051.017.086.052.086Z" fill="#fff"/><path d="m8.827 8.69-.966-.448c-.017-.017-.051 0-.069.035l-1 2.569c-.017.034.018.069.052.069H8.81c.034 0 .051-.018.051-.052V8.725a.037.037 0 0 0-.034-.035Zm5.707 2.604c-.035-.035-.087-.035-.138-.018l-.12.052a4.244 4.244 0 0 1-1.897.431c-.035 0-.052.018-.052.035a.666.666 0 0 1-.655.534h-1.345v-1.12h.017c.086.017.155.017.242.034.568.086.844.345.965.466l.017.017a.052.052 0 0 0 .07 0 .237.237 0 0 1 .068-.052c.207-.138.69-.43.69-1.983 0-1.586-1.207-2.655-1.345-2.724l-.707-.052h-.017v-.448a.507.507 0 0 0 .241-.43c0-.277-.207-.5-.482-.5a.486.486 0 0 0-.483.5c0 .172.086.327.241.413v.38l-1.017-.104c-.052 0-.086.052-.052.086.173.276.638 1.138.673 2.431.034 1.207-.156 1.776-.242 1.983-.017.017-.017.034 0 .052.017.017.035.017.052.017.12-.018.327-.052.586-.07v1.121h-1.12a.685.685 0 0 1-.673-.672v-.276c0-.034-.017-.052-.052-.052H5.913c-.017 0-.052.018-.052.052v.155c0 .776.224 1.483.604 2.104.069.103.19.155.293.103l.224-.103a.658.658 0 0 1 .569 0l.241.103c.173.086.38.086.57 0l.24-.103a.658.658 0 0 1 .57 0l.241.103a.66.66 0 0 0 .569 0l.241-.103a.658.658 0 0 1 .57 0l.24.103c.19.086.38.086.57 0l.241-.103a.658.658 0 0 1 .57 0l.24.103c.156.07.328-.017.414-.172.138-.224.259-.483.345-.724.19-.57.534-1.104 1.069-1.362.052-.018.069-.07.069-.121.034-.017.017-.069-.017-.086Z" fill="#fff"/></svg>