<svg width="15" height="14" viewBox="0 0 15 14" fill="none" xmlns="http://www.w3.org/2000/svg"><path d="M15 1.506a7.57 7.57 0 0 1-1.51 1.726v.46c0 .92-.109 1.84-.325 2.646-.215.92-.647 1.725-1.079 2.53a16.62 16.62 0 0 1-1.726 2.186c-.756.69-1.619 1.15-2.482 1.496-.972.345-2.05.575-3.13.575-1.726 0-3.345-.575-4.748-1.495h.755c1.403 0 2.806-.46 3.885-1.381-.647 0-1.295-.23-1.834-.69-.54-.46-.864-.92-1.08-1.61h.54c.324 0 .54 0 .864-.116-.648-.115-1.295-.575-1.727-1.15C.755 6.108.54 5.417.54 4.612c.431.23.97.345 1.402.46a5.298 5.298 0 0 1-1.079-1.15c-.216-.46-.431-1.036-.431-1.61C.432 1.735.54 1.16.863.7A8.265 8.265 0 0 0 3.67 3.116c1.08.576 2.266.92 3.561 1.036 0-.23-.108-.46-.108-.805 0-.69.216-1.266.54-1.841C7.986.93 8.525.586 9.065.24c.54-.23 1.187-.345 1.834-.115.648.115 1.187.46 1.619.92.647-.114 1.403-.344 1.942-.805-.215.806-.755 1.38-1.402 1.841.755-.115 1.402-.23 1.942-.575Z" fill="#fff"/></svg>